<?xml version="1.0" encoding="UTF-8"?>
<svg id="Capa_1" data-name="Capa 1" xmlns="http://www.w3.org/2000/svg" viewBox="0 0 99.96 88.62">
  <defs>
    <style>
      .cls-1 {
        fill: #ffc792;
      }

      .cls-1, .cls-2, .cls-3, .cls-4, .cls-5, .cls-6, .cls-7, .cls-8, .cls-9, .cls-10, .cls-11, .cls-12, .cls-13 {
        stroke-width: 0px;
      }

      .cls-2 {
        opacity: .39;
      }

      .cls-2, .cls-10 {
        fill: #fff;
      }

      .cls-3 {
        opacity: .23;
      }

      .cls-3, .cls-4, .cls-8, .cls-9, .cls-11 {
        fill: #ae312f;
      }

      .cls-14 {
        stroke: #6ce0c0;
      }

      .cls-14, .cls-15 {
        fill: none;
        stroke-miterlimit: 10;
      }

      .cls-4 {
        opacity: .2;
      }

      .cls-16 {
        font-family: Baloo, Baloo;
        font-size: 6.21px;
      }

      .cls-16, .cls-5 {
        fill: #ff9c3d;
      }

      .cls-6 {
        fill: #6ce0c0;
      }

      .cls-7 {
        fill: #ea4949;
      }

      .cls-7, .cls-17, .cls-11 {
        opacity: .48;
      }

      .cls-9 {
        opacity: .21;
      }

      .cls-15 {
        stroke: #ae312f;
      }

      .cls-12 {
        fill: #9befe6;
      }

      .cls-13 {
        fill: #f55;
      }
    </style>
  </defs>
  <path class="cls-12" d="M68.12,13.15c-8.2-4.54-18.01-5.98-27.35-5.02-7.56.78-15.22,3.4-20.75,8.79-12.21,11.91-13.2,32.87-.88,44.92,7.74,7.57,18.22,12.02,28.88,13.39,10.23,1.31,22.93.63,30.89-7.02,5.81-5.58,7.72-14.09,8.08-22.13.47-10.68-4.35-21.13-12.24-28.22-2.05-1.84-4.27-3.4-6.64-4.71Z"/>
  <g>
    <g>
      <path class="cls-5" d="M89.09,60.37c-.39.13-.73.26-1.05.4-1.16.54-1.92,1.41-2.81,4.46-.34,1.15-.67,2.45-1.13,3.74-.4,1.12-.89,2.24-1.56,3.24h0c-1.35,2-3.4,3.51-6.83,3.67h0c-1.46.07-2.71-.27-3.77-.84-4.11-2.22-5.39-8.02-5.39-8.02l1.95-3.11.17-.35s1.19,9.47,7.06,9.47c.16,0,.32,0,.48-.02.89-.08,1.64-.42,2.27-.95,1.39-1.17,2.27-3.27,3-5.51.55-1.67,1.03-3.42,1.61-4.93h0c.5-1.31,1.06-2.44,1.81-3.18.43-.43.91-.72,1.47-.85,2.31-.52,3.45.06,3.79.86.36.84-.13,1.6-1.06,1.92Z"/>
      <path class="cls-4" d="M89.09,60.37c-.39.13-.73.26-1.05.4-1.16.54-1.92,1.41-2.81,4.46-.34,1.15-.67,2.45-1.13,3.74-.4,1.12-.89,2.24-1.56,3.24h0c-1.35,2-3.4,3.51-6.83,3.67h0c-1.46.07-2.71-.27-3.77-.84-4.11-2.22-5.39-8.02-5.39-8.02l1.95-3.11.17-.35s1.19,9.47,7.06,9.47c.16,0,.32,0,.48-.02.89-.08,1.64-.42,2.27-.95,1.39-1.17,2.27-3.27,3-5.51.55-1.67,1.03-3.42,1.61-4.93h0c.5-1.31,1.06-2.44,1.81-3.18.43-.43.91-.72,1.47-.85,2.31-.52,3.45.06,3.79.86.36.84-.13,1.6-1.06,1.92Z"/>
    </g>
    <path class="cls-8" d="M89.09,60.37c-.39.13-.73.26-1.05.4.03-.78.87-1.6.87-1.6-1.98.28-3.3-.26-4.02-.73.43-.43.91-.72,1.47-.85,2.31-.52,3.45.06,3.79.86.36.84-.13,1.6-1.06,1.92Z"/>
    <path class="cls-8" d="M83.79,64.78c-.42,1.16-1.52,1.59-2.31,1.75.55-1.67,1.03-3.42,1.61-4.93.5.72,1.14,1.95.7,3.18Z"/>
    <path class="cls-8" d="M84.1,68.96c-.4,1.12-.89,2.24-1.56,3.24-.3-.79-.53-1.74-.26-2.44.31-.81,1.16-.88,1.82-.8Z"/>
    <path class="cls-8" d="M77.36,74.36c-.84.06-1.35-.66-1.64-1.34.16,0,.32,0,.48-.02.89-.08,1.64-.42,2.27-.95.07.79.03,2.23-1.12,2.31Z"/>
    <path class="cls-8" d="M75.71,75.87h0c-1.46.07-2.71-.27-3.77-.84,1.89-1.12,3.14-.03,3.77.84Z"/>
  </g>
  <path class="cls-5" d="M84.96,49.6c-.11-.6-.3-.98-.77-1.43-.2-1.11-1.72-1.19-2.58-.94-1.14.05-2.48.36-2.48.36-2.55.57-6.62,2.65-6.62,2.65-.34-1.92-.96-3.45-1.65-4.64-.54-.93-1.14-1.67-1.68-2.23-.98-1.01-1.82-1.48-1.99-1.57,0-.02-.01-.03-.02-.04,1.26-1.08,2.21-2.31,2.88-3.66.58-1.16.96-2.42,1.15-3.74.06-.38.1-.76.13-1.15.01-.19.02-.38.03-.56v-.02c.04-1.13-.04-2.31-.23-3.51-.02-.09-.03-.18-.04-.27-.03-.15-.05-.31-.08-.47-.02-.09-.04-.19-.06-.28-.22-1-.6-1.93-1.13-2.8,0,0,0,0,0,0-.07-.13-2.37-4.34-3.07-6.35-.71-2.04-1.13-4.67-2.33-4.75h0c-1.09-.08-3.59,2.24-4.14,4.9,0,0,0,0,0,0-.58-.17-1.17-.33-1.8-.48-.09-.02-.19-.05-.29-.07-.91-.21-1.86-.4-2.86-.56h0c-.41-.07-.83-.13-1.25-.19-1.84-.25-3.82-.43-5.95-.53-.07,0-.14,0-.2,0-.24,0-.47-.02-.7-.02-.63-.02-1.23-.01-1.81,0l-.08-.08c-.33-.34-.75-.84-.8-.9-.65-.76-1.03-1.76-1.6-2.58-.82-1.19-2.11-2.06-3.65-1.78-.1.02-.18.06-.27.12-.22.16-.4.45-.54.83-.52,1.38-.55,3.93-.04,5.48,0,.03.02.07.03.1-2.89,1.05-4.85,2.71-6.19,4.65-.09.13-.18.27-.27.41-.35.55-.65,1.13-.92,1.71-.01.03-.03.06-.03.08-.13.3-.26.6-.37.9-.05.14-.1.28-.15.42-.24.71-.44,1.44-.6,2.16-.02.08-.03.16-.05.24-.02.08-.03.17-.05.25-.08.38-.13.76-.17,1.13,0,.02,0,.03,0,.05-.05.46-.08.91-.09,1.35,0,.2,0,.4,0,.59.06,3.25,1.18,5.7,1.91,6.96.03.05.05.09.08.13-2.53,3.66-3.78,8.65-3.78,8.65v7.81l1.59,2.95c.05,1.9.12,3.8.24,5.7.15,2.33.37,4.66.72,6.96.21,1.39.47,2.77.78,4.14.16.69.33,1.37.52,2.05.25.91.53,1.81.84,2.7.34.96.71,1.91,1.12,2.85.03.06.05.11.08.17h0s-1.82,1.11-1.82,2.29c0,.59,7.34,3.11,11.45.47,0,0,.49-1.07.89-2.9h0s0,0,0,0c.28-1.32.51-3.02.48-4.99.51.09,3.52.58,5.75.37l.67,5.04v.23s-1.6,1.38-1.73,2.5c-.13,1.12,8.39,4.11,17.66-.18h0s0,0,0-.01c.04-.08.32-.65.59-2.03,0,0,0,0,0,0,.19-.7.42-1.57.66-2.58.27-1.11.56-2.41.84-3.84.11-.55.22-1.13.33-1.73.19-1.08.38-2.21.55-3.41.12-.86.24-1.74.34-2.65.14-1.18.26-2.4.35-3.66.05-.59.08-1.18.12-1.78.03-.47.05-.94.07-1.42,1.43,0,2.74-.23,3.94-.63,1.6-.54,3-1.39,4.21-2.4.84-.71,1.59-1.49,2.25-2.31,2.68-3.33,3.84-7.16,3.66-8.2Z"/>
  <path class="cls-1" d="M31.12,57.24s3.27-9.28,14.93-7.65c10,1.4,14.5,22.92,5.22,28.46-5.89,3.51-15.55-1.34-18.37-6.79-3.85-7.44-1.78-14.02-1.78-14.02Z"/>
  <path class="cls-8" d="M65.32,21.66c-.99-.9-2.2-1.54-3.19-1.95-1.04-.43-1.82-.62-1.86-.63.55-2.67,3.05-4.98,4.14-4.9h0c.15.62.33,1.36-.13,2.95-.05.16-.08.31-.11.46-.43,2.22.91,3.86,1.15,4.07Z"/>
  <path class="cls-8" d="M42.62,17.4s-1.68.34-3.06.65c-.42.09-.82.19-1.13.27-.51-1.55-.48-4.1.04-5.48.14-.38.33-.68.54-.83,0,0,.55.28.94,1.63.14.49.26.97.41,1.4.36,1.04.88,1.87,2.25,2.35Z"/>
  <path class="cls-7" d="M55.96,33.47c-.97.36-1.39,1.5-.59,2.33,1.07,1.11,3.5,1.57,4.88.85,1.17-.61.97-2.29,0-2.83-.82-.45-1.77-.61-2.69-.59-.43.01-1.06.04-1.6.24Z"/>
  <path class="cls-7" d="M39.39,30.65c.72.7.64,1.88-.39,2.3-1.39.56-3.72,0-4.67-1.18-.79-1,.05-2.42,1.12-2.51.9-.08,1.81.16,2.61.54.37.18.92.45,1.33.85Z"/>
  <path class="cls-8" d="M54.07,17.78c-1.35,1-2.42,2.62-3.27,3.83-.47.66-.9,1.35-1.3,2.05-.31.53-.83,1.03-1.47,1.07-.81.05-1.49-.53-1.85-1.22-.44-.86-.38-1.85-.17-2.77.31-1.3,1-2.51,1.91-3.51.07,0,.13,0,.2,0,2.13.1,4.11.28,5.95.53Z"/>
  <path class="cls-10" d="M45.51,53.17s-.02.03,0,.03.02-.03,0-.03Z"/>
  <path class="cls-8" d="M32.35,30.02c-.87.07-1.75-.29-2.51-.78.02-.08.03-.16.05-.25.02-.08.03-.16.05-.24.16-.72.36-1.45.6-2.16,1.54,1.63,3.44,3.29,1.8,3.43Z"/>
  <path class="cls-8" d="M31.85,32.23c-.59.29-1.46.27-2.28.14,0-.19,0-.39,0-.59,0-.44.04-.89.09-1.35,0-.02,0-.03,0-.05,1.65.6,3.23,1.34,2.18,1.86Z"/>
  <path class="cls-8" d="M32.45,26.12c-.47-.11-.95-.43-1.39-.84,0-.03.02-.06.03-.08.27-.59.57-1.16.92-1.71.86,1.44,1.53,2.89.43,2.64Z"/>
  <path class="cls-8" d="M58.19,18.54c-.36.32-.76.68-1.05.95-.92.86-1.91,2.09-2.57,2.18-1.38.18-1.81-1.19-.81-2.46.46-.58,1.05-.97,1.57-1.23h0c1,.16,1.95.35,2.86.56Z"/>
  <path class="cls-8" d="M47.22,17.22c-.78.84-1.67,2.28-2.41,2.46-1.11.26-1.87-.65-1.35-1.21.5-.54,1.06-.95,1.54-1.24.71-.03,1.45-.03,2.22-.02Z"/>
  <path class="cls-11" d="M58.24,44.72c.41-.12.83-.24,1.24-.38.41-.13.82-.26,1.21-.43l.22-.09-.11.21c-.06.11-.1.22-.13.34-.03.11-.04.24,0,.29.01.02.06.04.09.04.03,0,.07-.01.12-.05.09-.06.17-.15.25-.25.15-.19.29-.41.41-.63.12-.22.24-.46.32-.68l.14-.38.09.39c.04.19.11.38.19.55.08.17.2.34.33.32.14,0,.28-.16.38-.32.11-.16.19-.34.27-.52l.03-.07h.07c.46.03.93,0,1.39-.07.23-.03.46-.08.69-.15.23-.06.45-.15.66-.24-.21.11-.42.22-.64.3-.22.08-.45.15-.68.2-.47.1-.94.15-1.43.14l.09-.06c-.07.2-.15.39-.27.58-.06.09-.12.18-.21.26-.08.08-.19.15-.33.16-.07,0-.14,0-.2-.04-.06-.03-.11-.07-.15-.11-.08-.09-.14-.18-.19-.28-.1-.2-.17-.39-.22-.6h.23c-.09.27-.22.5-.35.73-.13.23-.27.45-.44.66-.09.1-.18.2-.3.29-.06.04-.14.08-.24.08-.09,0-.18-.04-.24-.13-.11-.17-.06-.33-.02-.46.04-.13.1-.25.17-.37l.11.12c-.41.15-.83.27-1.25.37-.42.1-.84.2-1.27.27Z"/>
  <path class="cls-11" d="M30.81,37.58c.21.42.43.85.67,1.26.11.21.24.41.36.61.13.19.27.39.43.53l.04.03v.06c-.03.2-.04.41-.02.6.02.19.08.4.19.44.05.02.08,0,.13-.06.05-.07.08-.16.11-.25.05-.19.08-.4.09-.59l.04-.51.2.47c.09.2.19.4.3.6.11.19.23.38.38.52.07.07.16.13.23.14.08.01.16,0,.18-.06.07-.14.04-.39-.02-.59l-.07-.26.21.16c.3.23.62.43.95.63.33.19.67.36,1.03.49-.37-.08-.73-.23-1.08-.39-.35-.17-.67-.37-1-.58l.13-.1c.04.12.07.23.09.35.01.12.02.25-.05.39-.04.07-.11.13-.18.16-.04.01-.08.02-.11.02-.04,0-.07,0-.11,0-.15-.03-.26-.11-.35-.19-.18-.17-.32-.37-.44-.57-.12-.2-.22-.41-.32-.62l.24-.04c-.01.22-.05.43-.11.65-.03.11-.07.22-.15.32-.02.03-.04.05-.07.08-.03.02-.06.05-.1.06-.08.03-.17.03-.24,0-.15-.05-.23-.19-.27-.3-.04-.12-.06-.23-.07-.34-.01-.22,0-.44.03-.65l.03.09c-.19-.18-.31-.39-.44-.6-.12-.21-.23-.42-.34-.63-.2-.43-.39-.87-.55-1.32Z"/>
  <g>
    <g>
      <path class="cls-10" d="M60.6,32.03c-1.5.86-3.77,1-5.33.24-.33-.16-.64-.37-.91-.64-1.16-1.15-1.72-3.04-1.6-4.66,0-.04,0-.08,0-.11.16-1.63,1.21-3.03,2.7-3.7,1.74-.78,4.25-.89,5.68.54.57.57.99,1.32,1.25,2.16h0c.69,2.22.22,5.01-1.79,6.16Z"/>
      <path class="cls-8" d="M60.6,32.03c-.85.48-1.83.71-2.81.75-.49.02-.98-.01-1.46-.11-.48-.09-.96-.25-1.39-.49-.44-.24-.81-.6-1.11-.99-.31-.39-.55-.83-.75-1.29-.39-.92-.57-1.93-.52-2.94v.02c.06-1.2.6-2.33,1.47-3.13.43-.4.93-.73,1.48-.95.54-.22,1.1-.37,1.68-.45,1.14-.15,2.37-.02,3.38.61.5.31.91.75,1.22,1.23.31.48.54,1.02.7,1.56l-.09-.07h0s.07,0,.07,0l.02.07c.16.56.25,1.14.26,1.72,0,.58-.05,1.16-.19,1.72-.14.56-.37,1.1-.7,1.58-.32.48-.75.88-1.26,1.17ZM60.6,32.03c.5-.29.92-.7,1.24-1.18.32-.48.53-1.02.66-1.58.13-.56.17-1.14.13-1.71-.04-.57-.15-1.13-.33-1.67l.09.07h0s-.07,0-.07,0l-.02-.07c-.18-.52-.42-1.03-.74-1.47-.32-.45-.71-.83-1.18-1.09-.47-.26-.99-.41-1.52-.48-.53-.07-1.08-.05-1.62.03-1.07.17-2.12.57-2.9,1.29-.2.18-.37.38-.53.59-.15.22-.3.44-.42.68-.12.24-.22.49-.29.74-.04.13-.06.26-.09.39-.02.13-.05.27-.05.38v.02c-.09.94.04,1.91.37,2.8.17.45.39.88.66,1.27.27.39.61.74,1.02.99.82.51,1.81.7,2.78.69.97-.01,1.95-.24,2.81-.71Z"/>
    </g>
    <path class="cls-8" d="M57.28,31.4c1.29.19,2.74-.3,3.51-1.39,1.24-1.72.71-4.42-1.11-5.49-.98-.58-2.31-.7-3.36-.27-2.82,1.17-2.59,5.46-.06,6.82.31.17.66.27,1.02.33Z"/>
    <path class="cls-9" d="M62.39,25.87c-5.69-2.7-9.21.67-9.63,1.11,0-.04,0-.08,0-.11.16-1.63,1.21-3.03,2.7-3.7,1.74-.78,4.25-.89,5.68.54.57.57.99,1.32,1.25,2.16Z"/>
  </g>
  <g>
    <g>
      <path class="cls-10" d="M42.13,27.62c-.72,1.32-2.37,1.82-3.78,1.77-.19,0-.38-.03-.57-.08-2.23-.52-3.55-3.55-2.72-5.67.08-.22.19-.43.32-.63,1.16-1.72,4.12-2.37,5.85-1.16.42.3.69.77.88,1.23.13.32.24.67.32,1.04.26,1.17.24,2.51-.3,3.49Z"/>
      <path class="cls-8" d="M42.13,27.62c-.13.23-.29.45-.47.64-.19.19-.39.36-.62.49-.45.28-.96.47-1.48.58-.26.05-.53.09-.79.11-.27.02-.54.02-.81-.01-.54-.09-1.05-.3-1.49-.62-.89-.65-1.48-1.65-1.74-2.71-.13-.54-.17-1.1-.11-1.65l.08-.41c.03-.14.08-.27.12-.4.09-.27.22-.53.38-.76.66-.94,1.71-1.5,2.79-1.71.54-.11,1.1-.12,1.64-.04.54.08,1.08.26,1.53.57.24.14.44.35.6.58.16.23.28.47.38.72.2.5.32,1.02.4,1.55.08.53.1,1.06.04,1.59-.05.53-.19,1.05-.44,1.51ZM42.13,27.62c.5-.95.52-2.06.34-3.09-.1-.52-.25-1.03-.47-1.5-.22-.47-.52-.92-.96-1.15-.88-.52-1.98-.56-2.96-.33-.49.12-.97.31-1.4.57-.43.26-.81.6-1.08,1-.14.2-.26.42-.33.65-.04.12-.08.23-.11.35l-.07.37c-.07.49-.05,1.01.05,1.5.2.99.69,1.96,1.49,2.61.39.33.87.55,1.37.67.25.05.51.06.78.06.26,0,.53-.02.78-.07.52-.09,1.03-.26,1.48-.53.23-.13.43-.3.62-.48.19-.19.34-.4.48-.63Z"/>
    </g>
    <path class="cls-8" d="M37.1,27.45c.09.08.91,1.14,2.8.61,1.89-.53,1.74-2.95,1.47-3.74-.27-.8-1.21-2.45-3.36-1.92-2.15.53-2.45,3.7-.91,5.05Z"/>
    <path class="cls-9" d="M42.43,24.13c-2.49-1.51-5.71-.95-7.37-.49.08-.22.19-.43.32-.63,1.16-1.72,4.12-2.37,5.85-1.16.42.3.69.77.88,1.23.13.32.24.67.32,1.04Z"/>
  </g>
  <path class="cls-8" d="M55.35,88.62c-.14-.23-.25-.49-.25-.78-.01-.29.08-.58.24-.82.17-.24.39-.42.64-.55.24-.13.51-.22.77-.26-.23.14-.46.27-.67.42-.21.15-.4.32-.53.53-.14.2-.22.43-.25.68-.03.25.02.51.06.78Z"/>
  <path class="cls-8" d="M51.51,88c-.09-.21-.13-.45-.15-.68-.02-.23,0-.47.06-.7.06-.23.16-.46.31-.64.15-.19.36-.32.58-.39-.17.16-.32.32-.42.5-.1.19-.18.39-.23.59-.06.21-.08.43-.11.65-.02.22-.03.44-.04.68Z"/>
  <path class="cls-11" d="M55.92,80.47c.03.15.1.3.21.41.11.11.26.15.4.14.15-.01.28-.07.37-.17.09-.1.14-.25.16-.39l.02-.19.13.14c.21.23.48.45.76.53.13.04.29.01.34-.07.06-.08.06-.24.03-.37l-.05-.17h.18c.77.07,1.55.1,2.33.06.39-.02.77-.05,1.15-.13.38-.07.76-.17,1.1-.36-.31.24-.69.38-1.07.49-.38.1-.78.16-1.17.2-.39.04-.79.06-1.18.05-.39,0-.79-.02-1.18-.06l.13-.16c.03.1.04.19.03.29,0,.1-.03.21-.1.3-.07.1-.19.14-.29.16-.1.02-.2,0-.3-.02-.18-.05-.34-.15-.47-.26-.14-.11-.25-.24-.36-.37l.15-.04c-.03.18-.1.33-.23.46-.12.13-.31.19-.48.18-.17,0-.34-.08-.45-.21-.11-.13-.15-.29-.16-.45Z"/>
  <path class="cls-8" d="M70.94,28.08c-5.35,2.97-7.02-.61-4.85-1.17,1.45-.38,2.8-1.15,3.69-1.68.55.89.94,1.84,1.16,2.85Z"/>
  <path class="cls-8" d="M71.35,32.61v.02c-.01.1-.02.2-.03.3-1.95.73-4.33,1.12-6.18.29-.7-.31-1.29-1-1.04-1.7.1-.28.33-.52.61-.69.82-.51,1.95-.59,2.93-.69,1.11-.12,2.44-.59,3.48-1.04.18,1.2.26,2.38.23,3.51Z"/>
  <path class="cls-8" d="M71.2,34.35c-.19,1.32-.57,2.58-1.15,3.74-1.33.22-2.76-.1-3.91-.78-.51-.31-.96-.8-.83-1.44.17-.84,1.3-.93,1.99-.92,1.86.04,3.19-.33,3.9-.6Z"/>
  <path class="cls-8" d="M36.72,87.1c-.05-.16-.06-.32-.04-.49.02-.16.08-.33.16-.47.09-.15.21-.28.35-.36.14-.1.31-.14.47-.14-.13.1-.25.18-.35.29-.1.1-.19.21-.26.34-.15.25-.24.53-.34.84Z"/>
  <path class="cls-8" d="M33.63,86.7c-.05-.15-.05-.3-.04-.45.01-.15.05-.3.12-.44.07-.14.16-.27.29-.37.13-.1.28-.15.43-.15-.12.1-.22.19-.3.29-.08.11-.14.22-.2.34-.06.12-.1.25-.15.38-.05.13-.09.26-.15.41Z"/>
  <path class="cls-11" d="M37.38,80.22c.04.18.1.35.16.52.07.17.15.34.26.45.11.11.27.07.39-.04.12-.11.21-.27.27-.42l.1-.24.1.25c.07.19.16.37.26.55.1.17.21.34.34.47.07.06.14.11.21.13.08.02.16.01.23-.02.15-.06.27-.23.35-.38l.17-.35.05.38c.03.19.1.39.19.57.1.18.22.35.37.49.15.14.32.26.51.36.09.06.19.08.29.13l.31.1c-.11-.02-.22-.03-.32-.05-.1-.03-.21-.05-.31-.09-.21-.07-.4-.19-.58-.33-.18-.14-.32-.31-.44-.51-.12-.19-.2-.4-.25-.64l.22.03c-.09.21-.23.41-.47.52-.12.05-.26.06-.38.03-.13-.03-.24-.11-.32-.19-.16-.16-.28-.35-.38-.54-.1-.19-.18-.38-.25-.59h.2c-.08.19-.19.35-.36.48-.08.06-.18.11-.3.12-.05,0-.11,0-.17-.03-.05-.02-.1-.06-.13-.1-.14-.15-.19-.34-.24-.52-.04-.18-.07-.36-.09-.55Z"/>
  <path class="cls-11" d="M35.25,83.98c.73-.12,1.48-.07,2.2.07.36.07.72.17,1.07.31.35.13.68.31.98.51-.35-.11-.69-.23-1.04-.32-.35-.09-.7-.18-1.05-.25-.35-.07-.71-.13-1.07-.18-.36-.05-.72-.1-1.09-.13Z"/>
  <path class="cls-11" d="M51.09,83.95c.57-.1,1.14-.13,1.72-.14.58,0,1.15.03,1.72.11.57.08,1.14.2,1.69.36.55.17,1.09.4,1.58.69-.27-.09-.53-.21-.81-.28-.27-.09-.54-.16-.82-.23-.55-.12-1.11-.23-1.67-.3-.56-.08-1.13-.12-1.7-.16-.28-.02-.57-.03-.85-.04-.29-.02-.57-.01-.86-.02Z"/>
  <g>
    <path class="cls-8" d="M30.76,31.74c.86-.18,1.72-.29,2.59-.38.87-.08,1.74-.15,2.61-.14-.86.18-1.72.29-2.59.38-.87.08-1.74.15-2.61.14Z"/>
    <path class="cls-8" d="M30.61,29.57c.85.03,1.68.13,2.52.24.83.12,1.66.27,2.48.48-.85-.03-1.68-.13-2.52-.24-.83-.12-1.66-.27-2.48-.48Z"/>
    <path class="cls-8" d="M31.59,27.06c.75.4,1.46.85,2.15,1.33.69.48,1.38.97,2.02,1.52-.75-.4-1.46-.85-2.15-1.33-.69-.48-1.38-.97-2.02-1.52Z"/>
  </g>
  <path class="cls-10" d="M62.88,18.99s-.61-.04-.77-.18c-.17-.14.77-.16.77-.16-.47-.2-.85-.75-.69-.76.16-.01.71.39.71.39-.57-.83-.16-2.08.47-2,.27.03.56.63.8,1.3-.43,2.22.91,3.86,1.15,4.07-.99-.9-2.2-1.54-3.19-1.95.16-.45.75-.71.75-.71Z"/>
  <path class="cls-10" d="M39.56,18.05c.09-.5.62-1.2.66-1.26-.04.02-.47.2-.67.09-.21-.12.51-.4.51-.4,0,0-.55.04-.6-.12-.05-.16.52-.12.52-.12-.4-.24-1.12-1.32-.62-1.61.32-.18.75.16,1.01.42.36,1.04.88,1.87,2.25,2.35,0,0-1.68.34-3.06.65Z"/>
  <g>
    <path class="cls-8" d="M47.33,27.24s-.74-1.07-1.17-.92c-.43.15.68,1.77,1.14,1.95.46.18,1.62-1.36,1.39-1.7-.23-.33-1.35.66-1.35.66Z"/>
    <path class="cls-8" d="M48.34,33.99c-.12-.48-.22-.97-.33-1.46l-.29-1.46c-.1-.49-.18-.98-.26-1.47-.08-.49-.16-.98-.2-1.49l.23.03c-.32.91-.61,1.83-.89,2.75-.14.46-.28.92-.4,1.39-.13.46-.24.93-.34,1.41.04-.48.13-.96.22-1.43.1-.47.22-.94.34-1.41.12-.47.26-.93.4-1.39.14-.46.29-.92.44-1.38l.19-.55.04.58c.04.49.11.98.18,1.47l.22,1.47.22,1.47.21,1.48Z"/>
    <path class="cls-11" d="M45.2,28.26c-.8.12-1.59.55-2.1,1.27-.74,1.05-.97,2.41-.21,3.47.47.66,1.17,1.05,1.89,1.31,1.37.5,2.77.9,4.24.61.53-.1,1.07-.29,1.52-.63.7-.53,1.17-1.43,1.23-2.36.07-.93-.27-1.87-.89-2.47-.76-.73-1.95-1.04-2.94-1.11-.88-.06-1.87-.23-2.74-.1Z"/>
  </g>
  <g>
    <path class="cls-8" d="M59.14,35.16c.87.1,1.73.27,2.58.46.85.19,1.7.41,2.53.69-.87-.1-1.73-.27-2.58-.46-.85-.19-1.7-.41-2.53-.69Z"/>
    <path class="cls-8" d="M64.65,34.16c-.84.11-1.68.15-2.52.17-.84.01-1.68.01-2.53-.07.84-.11,1.68-.15,2.52-.17.84-.01,1.68-.01,2.53.07Z"/>
    <path class="cls-8" d="M63.99,31.55c-.7.47-1.44.88-2.19,1.27-.75.38-1.51.75-2.3,1.05.7-.47,1.44-.88,2.19-1.27.75-.38,1.51-.75,2.3-1.05Z"/>
  </g>
  <path class="cls-11" d="M39.66,56.64c-.37-.22-.75-.42-1.15-.58-.2-.08-.4-.15-.61-.19-.2-.04-.42-.06-.59.02-.08.04-.15.11-.14.18,0,.07.05.16.11.23.13.15.31.27.48.38.36.22.75.41,1.13.58l.3.13-.32.07c-.3.07-.59.14-.88.23-.14.04-.29.09-.43.14-.13.05-.29.12-.36.18,0,0,0,.01,0,0,0,0,0-.03,0-.04,0-.01,0,0,.02,0,.05.02.12.03.19.03.14,0,.29,0,.44,0,.3-.02.6-.06.9-.11l.39-.06-.29.27c-.24.22-.47.45-.7.68-.22.24-.44.48-.61.74-.04.07-.08.13-.11.2-.03.06-.04.14-.02.15.03.07.18.08.33.03.29-.09.57-.27.83-.46l.29-.2-.17.31c-.12.21-.21.44-.28.68-.07.24-.13.48-.16.73-.03.25-.04.5-.02.74.01.25.07.49.13.74-.08-.24-.16-.48-.18-.73-.04-.25-.04-.51-.02-.76.02-.25.06-.51.12-.75.07-.25.15-.49.27-.72l.12.1c-.27.2-.54.39-.87.51-.08.03-.17.05-.28.05-.1,0-.22-.05-.29-.16-.06-.14-.02-.24,0-.33.03-.09.08-.16.12-.24.18-.29.41-.54.63-.78.23-.24.46-.48.7-.7l.1.2c-.31.05-.61.09-.92.12-.16,0-.31.02-.48,0-.08,0-.16-.01-.26-.05-.04-.02-.11-.05-.15-.13-.02-.04-.02-.11,0-.15.02-.04.04-.07.06-.09.08-.08.15-.11.23-.15.07-.03.15-.06.22-.09.15-.05.3-.1.45-.14.3-.08.6-.16.9-.22l-.02.21c-.4-.18-.78-.37-1.15-.62-.18-.12-.36-.25-.51-.43-.07-.09-.15-.2-.14-.35.01-.15.13-.25.24-.3.23-.1.47-.06.68,0,.21.06.41.14.61.23.39.19.76.41,1.11.65Z"/>
  <path class="cls-8" d="M56.36,21.31c-.16.22-.31.48-.3.76,0,.06.01.11.04.16.09.14.29.13.45.11.72-.11,1.47-.22,2.11-.58.19-.11.38-.26.41-.47.01-.09,0-.18-.03-.27-.09-.33-.28-.63-.54-.86-.05-.04-.11-.08-.17-.11-.79-.26-1.58.72-1.97,1.25Z"/>
  <path class="cls-8" d="M42.25,21.64c.22.17.48.33.8.36.06,0,.13,0,.19-.02.17-.06.2-.23.21-.38.02-.64.04-1.3-.24-1.9-.08-.18-.21-.36-.45-.42-.1-.02-.2-.02-.31,0-.39.04-.77.17-1.07.36-.06.04-.12.08-.15.13-.44.66.5,1.47,1.02,1.87Z"/>
  <rect class="cls-13" x="76.21" y="27.83" width="4.95" height="15.84"/>
  <rect class="cls-6" x="84.81" y="21.74" width="4.95" height="21.92"/>
  <rect class="cls-12" x="93.42" y="35.46" width="4.95" height="8.21"/>
  <line class="cls-14" x1="73.12" y1="45.86" x2="99.96" y2="45.86"/>
  <g>
    <path class="cls-6" d="M36.77,45.86c0,10.15-8.23,18.38-18.38,18.38S0,56.02,0,45.86s8.23-18.39,18.39-18.39c6.66,0,12.48,3.54,15.71,8.83,1.7,2.78,2.67,6.06,2.67,9.55Z"/>
    <path class="cls-3" d="M36.77,45.86c0,10.15-8.23,18.38-18.38,18.38S0,56.02,0,45.86s8.23-18.39,18.39-18.39c6.66,0,12.48,3.54,15.71,8.83,1.7,2.78,2.67,6.06,2.67,9.55Z"/>
    <path class="cls-6" d="M38.03,45.86c0,10.15-8.23,18.38-18.38,18.38S1.26,56.02,1.26,45.86s8.23-18.39,18.39-18.39c6.52,0,12.24,3.39,15.51,8.51.07.1.14.21.2.32.32.53.62,1.09.89,1.65,1.14,2.39,1.78,5.07,1.78,7.9Z"/>
    <path class="cls-13" d="M35.35,36.31l-15.71,9.55v-18.39c6.66,0,12.48,3.54,15.71,8.83Z"/>
  </g>
  <g class="cls-17">
    <path class="cls-8" d="M71.01,63.23c-2.18.67-4.78.32-6.36-1.46-.54-.59-.93-1.25-1.16-2.06l.77.09c-.24.34-.46.69-.85.92-.37.22-.78-.11-.73-.45.09-.7.5-1.28.86-1.82-.1.62-.31,1.22-.28,1.8,0,.06.04.01-.05-.06-.23-.06-.11-.03-.06-.13.27-.34.56-1.1.75-1.51,1.04,3.38,3.81,4.45,7.1,4.69h0Z"/>
  </g>
  <g class="cls-17">
    <path class="cls-8" d="M63.55,58.44c-.13.62-.77,1.45-1.48.89-.45-.61.07-1.32.46-1.75.22-.23.48-.43.82-.56-.01.75-.29,1.42-.49,1.84,0,.02-.01-.12-.1-.18-.12-.11-.23-.07-.22-.06.29.02.6-.15,1-.19h0Z"/>
  </g>
  <g>
    <circle class="cls-2" cx="57.3" cy="27.7" r="6.43" transform="translate(-6.23 23.82) rotate(-22.3)"/>
    <ellipse class="cls-2" cx="38.79" cy="25.53" rx="5.77" ry="6.43"/>
    <ellipse class="cls-15" cx="38.81" cy="25.49" rx="5.76" ry="6.43"/>
    <path class="cls-15" d="M44.57,25.71s3.55-1.33,6.2.89"/>
    <circle class="cls-15" cx="57.2" cy="27.7" r="6.43" transform="translate(-3.69 9.48) rotate(-9.18)"/>
  </g>
  <path class="cls-8" d="M79.63,50.03c.52-1.25,1.23-1.78,1.98-2.8.69,1.26-.68,2.8-1.98,2.8h0Z"/>
  <path class="cls-8" d="M81.61,51.6c.49-1.07,1.19-1.77,1.9-2.58.22-.26.44-.5.68-.85.19.39.14.84,0,1.23-.41,1.12-1.4,2-2.58,2.21h0Z"/>
  <g class="cls-17">
    <path class="cls-8" d="M72.51,50.24c-1.51,1.2-2.57,2.27-3.85,3.65-.06-1.97,1.87-3.84,3.85-3.65h0Z"/>
  </g>
  <g>
    <polygon class="cls-13" points="47.13 48.17 46.7 48.78 46.43 49.16 46.17 49.53 46.13 49.59 45.21 49.52 44.4 49.45 43.47 49.38 43.4 49.25 43.31 49.05 43.17 48.79 42.86 48.16 42.73 47.9 42.42 47.27 42.42 47.27 42.64 46.91 43.85 44.88 46.73 45.11 46.81 45.69 46.84 45.98 46.94 46.67 46.97 46.96 47.06 47.65 47.1 47.94 47.13 48.17"/>
    <polygon class="cls-13" points="48.74 67.6 48.09 68.29 47.69 68.71 46.88 69.56 46.49 69.97 46.37 70.09 45.98 70.51 44.74 71.81 44.05 71.08 43.83 70.84 43.76 70.77 43.54 70.53 43.09 70.05 42.87 69.81 42.33 69.24 42.11 69 41.54 68.38 41.32 68.15 40.53 67.3 40.49 67.26 40.53 67 40.75 65.69 40.8 65.38 40.97 64.31 41.02 63.99 41.19 62.92 41.24 62.61 41.42 61.54 41.47 61.22 41.64 60.16 41.69 59.84 41.86 58.78 41.91 58.46 42.06 57.59 42.11 57.27 42.23 56.52 42.28 56.2 42.4 55.44 42.45 55.13 42.57 54.37 42.63 54.05 42.75 53.3 42.8 52.98 42.92 52.23 42.97 51.91 43.09 51.15 43.15 50.84 43.27 50.09 43.32 49.77 43.4 49.25 43.44 49.01 43.45 48.96 43.65 48.95 46.08 48.92 46.09 48.96 46.13 49.25 46.17 49.53 46.23 49.93 46.27 50.22 46.37 50.92 46.41 51.2 46.51 51.89 46.55 52.18 46.65 52.88 46.69 53.17 46.78 53.86 46.83 54.14 46.92 54.84 46.97 55.13 47.07 55.82 47.11 56.11 47.22 56.91 47.26 57.2 47.4 58.17 47.44 58.46 47.58 59.44 47.62 59.73 47.76 60.7 47.8 60.99 47.94 61.97 47.98 62.26 48.12 63.23 48.16 63.52 48.33 64.72 48.37 65.01 48.52 66.04 48.56 66.33 48.67 67.08 48.71 67.37 48.74 67.6"/>
    <polygon class="cls-8" points="46.84 45.98 42.42 47.27 42.64 46.91 46.81 45.69 46.84 45.98"/>
    <polygon class="cls-8" points="46.97 46.96 42.86 48.16 42.73 47.9 46.94 46.67 46.97 46.96"/>
    <polygon class="cls-8" points="47.1 47.94 43.65 48.95 43.44 49.01 43.31 49.05 43.17 48.79 47.06 47.65 47.1 47.94"/>
    <polygon class="cls-8" points="46.7 48.78 46.43 49.16 46.13 49.25 45.21 49.52 43.27 50.09 43.32 49.77 44.4 49.45 46.09 48.96 46.7 48.78"/>
    <polygon class="cls-8" points="46.27 50.22 43.09 51.15 43.15 50.84 46.23 49.93 46.27 50.22"/>
    <polygon class="cls-8" points="46.41 51.2 42.92 52.23 42.97 51.91 46.37 50.92 46.41 51.2"/>
    <polygon class="cls-8" points="46.55 52.18 42.75 53.3 42.8 52.98 46.51 51.89 46.55 52.18"/>
    <polygon class="cls-8" points="46.69 53.17 42.57 54.37 42.63 54.05 46.65 52.88 46.69 53.17"/>
    <polygon class="cls-8" points="46.83 54.14 42.4 55.44 42.45 55.13 46.78 53.86 46.83 54.14"/>
    <polygon class="cls-8" points="46.97 55.13 42.23 56.52 42.28 56.2 46.92 54.84 46.97 55.13"/>
    <polygon class="cls-8" points="47.11 56.11 42.06 57.59 42.11 57.27 47.07 55.82 47.11 56.11"/>
    <polygon class="cls-8" points="47.26 57.2 41.86 58.78 41.91 58.46 47.22 56.91 47.26 57.2"/>
    <polygon class="cls-8" points="47.44 58.46 41.64 60.16 41.69 59.84 47.4 58.17 47.44 58.46"/>
    <polygon class="cls-8" points="47.62 59.73 41.42 61.54 41.47 61.22 47.58 59.44 47.62 59.73"/>
    <polygon class="cls-8" points="47.8 60.99 41.19 62.92 41.24 62.61 47.76 60.7 47.8 60.99"/>
    <polygon class="cls-8" points="47.98 62.26 40.97 64.31 41.02 63.99 47.94 61.97 47.98 62.26"/>
    <polygon class="cls-8" points="48.16 63.52 40.75 65.69 40.8 65.38 48.12 63.23 48.16 63.52"/>
    <polygon class="cls-8" points="48.37 65.01 40.53 67.3 40.49 67.26 40.53 67 48.33 64.72 48.37 65.01"/>
    <polygon class="cls-8" points="48.56 66.33 41.54 68.38 41.32 68.15 48.52 66.04 48.56 66.33"/>
    <polygon class="cls-8" points="48.71 67.37 42.33 69.24 42.11 69 48.67 67.08 48.71 67.37"/>
    <polygon class="cls-8" points="48.09 68.29 47.69 68.71 43.09 70.05 42.87 69.81 48.09 68.29"/>
    <polygon class="cls-8" points="46.37 70.09 45.98 70.51 44.05 71.08 43.83 70.84 46.37 70.09"/>
  </g>
  <path class="cls-10" d="M37.63,42.03s5.1,1.66,7.1,2l-2.43,3.55s-3.54-4.51-4.67-5.56Z"/>
  <path class="cls-10" d="M44.74,44.04l2.39,4.14s6.5-2.55,9.72-3.71c0,0-8.1.24-12.12-.42Z"/>
  <path class="cls-8" d="M70.71,66.35c-.1,1.25-.22,2.48-.35,3.66-1.34.46-2.82.63-4.18.65-.96.01-3.54.21-3.78-1.13-.12-.69.58-1.24,1.24-1.5,1.21-.48,2.53-.59,3.81-.82,1.11-.19,2.2-.48,3.26-.85Z"/>
  <path class="cls-8" d="M70.01,72.66c-.17,1.19-.36,2.33-.55,3.41-.39-.04-.77-.12-1.15-.24-.19-.06-.38-.12-.55-.22-.13-.06-.25-.14-.36-.23-.14-.12-.25-.26-.33-.43-.07-.14-.11-.3-.1-.46.03-.57.57-.97,1.1-1.19.65-.26,1.31-.41,1.94-.64Z"/>
  <path class="cls-8" d="M69.13,77.79c-.28,1.44-.57,2.73-.84,3.84-.1.01-.21.02-.31.03-.61.04-1.21-.02-1.8-.19-.7-.21-1.43-.72-1.43-1.44,0-.51.4-.96.85-1.19.45-.23.98-.31,1.48-.41.35-.08.71-.17,1.05-.28.34-.1.67-.22.99-.36Z"/>
  <path class="cls-8" d="M70.86,45.59c-.07.04-.14.08-.21.12-.51.27-1.03.54-1.56.79-.52.25-1.18.48-1.63.12-.3-.23-.39-.65-.31-1.02.08-.37.3-.68.54-.96.43-.5.93-.95,1.48-1.27.55.57,1.14,1.3,1.68,2.23Z"/>
  <path class="cls-8" d="M81.3,57.81c-.66.82-1.41,1.6-2.25,2.31-.16-.09-.32-.18-.47-.28-.76-.53-1.36-1.27-1.9-2.02-.3-.41-.59-.9-.48-1.4.13-.59.83-.91,1.43-.83.6.08,1.12.45,1.59.84.71.58,1.36,1.01,2.08,1.39Z"/>
  <path class="cls-8" d="M74.84,62.52c-1.37.53-3.95.69-3.95.72-.55.06-1.06.07-1.53.05-.03-.08-.05-.16-.06-.24-.07-.37-.04-.77,0-1.15.11-.93.3-1.9.88-2.64.2-.26.47-.49.77-.56.08-.02.16-.03.25-.02.2.01.39.1.56.21.88.54,1.38,1.5,1.94,2.36.28.42.59.83.98,1.16.05.04.1.08.16.12Z"/>
  <path class="cls-8" d="M35.23,79.65c-.12.51-.74.69-1.26.74-.5.05-.99.06-1.49.04-.31-.89-.59-1.79-.84-2.7.66.27,1.34.48,2.04.63.37.08.76.14,1.08.34.32.2.57.59.48.95Z"/>
  <path class="cls-8" d="M33.54,74.25c-.03.5-.4.95-.85,1.18-.45.23-.97.28-1.48.26-.03,0-.06,0-.09,0-.32-1.37-.57-2.75-.78-4.14.86.12,1.74.71,2.36,1.21.46.38.88.91.85,1.5Z"/>
  <g>
    <g>
      <path class="cls-5" d="M19.91,21.46c0,.35.05.68.13,1.01l.24.09c-.1-.33-.15-.67-.16-1.02l-.21-.08ZM19.91,21.41s0,.03,0,.04c0,.35.05.68.13,1.01.02.09.04.17.07.25.24.73.67,1.37,1.23,1.87.39.34.84.61,1.33.79h0c.45.16.94.26,1.45.26,2.33,0,4.22-1.89,4.22-4.22,0-1.65-.96-3.09-2.35-3.78-.56-.28-1.2-.44-1.87-.44-.01,0-.02,0-.04,0-.41,0-.81.07-1.18.18-.11.03-.21.07-.31.11-.39.15-.75.36-1.08.62-.07.05-.13.1-.19.16-.26.23-.48.48-.68.76-.04.06-.08.12-.12.18-.17.27-.31.56-.41.87-.02.07-.04.13-.06.2-.09.31-.14.63-.15.97,0,.06,0,.12,0,.18ZM20.12,21.54s0-.08,0-.12c0-.03,0-.07,0-.1,0-.33.06-.66.14-.97.02-.07.04-.14.06-.2.1-.31.24-.6.41-.87.04-.06.08-.12.12-.18.2-.28.43-.54.7-.76.06-.05.13-.1.19-.15.35-.26.73-.46,1.15-.59.11-.04.23-.07.35-.1.28-.07.58-.1.88-.1.64,0,1.24.15,1.77.42.32.16.61.35.87.59.83.74,1.36,1.81,1.36,3.01,0,2.21-1.8,4.01-4.01,4.01-.23,0-.46-.02-.68-.06-.25-.04-.49-.11-.72-.2h0c-1.08-.41-1.94-1.27-2.35-2.35-.03-.08-.06-.17-.09-.26-.1-.33-.15-.67-.16-1.02ZM19.91,21.46c0,.35.05.68.13,1.01l.24.09c-.1-.33-.15-.67-.16-1.02l-.21-.08Z"/>
      <path class="cls-5" d="M18.99,21.15c0,.32.07.65.19.99.03.09.07.18.1.26.55,1.25,1.76,2.45,2.81,2.82l.06.02c.3.11.39.14.53.14h0s.03,0,.04,0c.04,0,.08,0,.13,0,.08,0,.2,0,.36,0,.08,0,.15,0,.23,0-.25-.04-.49-.11-.72-.2h0c-.13,0-.2-.02-.5-.13l-.06-.02c-.26-.09-.54-.24-.81-.43-.7-.49-1.38-1.27-1.78-2.07-.04-.09-.09-.18-.12-.27-.15-.35-.24-.71-.24-1.05v-.04c0-.06,0-.12,0-.18.01-.33.07-.65.16-.96.02-.07.04-.14.07-.2.11-.3.25-.59.43-.86.04-.06.08-.12.12-.18.21-.28.45-.53.72-.75.06-.05.13-.1.2-.15.36-.25.76-.45,1.2-.57.12-.04.24-.07.37-.09.24-.05.48-.07.74-.07.31,0,.61.02.88.05.67.08,1.23.28,1.79.61,0,0,.02.01.02.01.32.16.61.35.87.59-.2-.31-.45-.58-.78-.77,0,0-.01,0-.01-.01-.82-.49-1.65-.69-2.77-.69-.38,0-.74.05-1.09.14-.11.03-.22.06-.33.1-.4.15-.78.35-1.12.6-.07.05-.13.1-.19.16-.26.22-.5.48-.7.76-.04.06-.08.12-.12.18-.17.27-.32.56-.43.86-.02.07-.04.13-.07.2-.09.31-.15.63-.17.96,0,.07,0,.15,0,.22,0,.01,0,.03,0,.04Z"/>
      <path class="cls-5" d="M21.79,17.18l.32.12.49.18.3.12c.11-.04.23-.07.35-.1l-.34-.13-.43-.16-.36-.14c-.11.03-.22.06-.33.1Z"/>
      <path class="cls-5" d="M20.49,17.94l.23.08.62.24.22.08c.06-.05.13-.1.19-.15l-.23-.09-.61-.23-.23-.09c-.07.05-.13.1-.19.16Z"/>
      <path class="cls-5" d="M19.67,18.87l.2.08.67.26.2.08c.04-.06.08-.12.12-.18l-.2-.08-.66-.25-.2-.08c-.04.06-.08.12-.12.18Z"/>
      <path class="cls-5" d="M19.17,19.93l.2.08.7.26.2.08c.02-.07.04-.14.06-.2l-.2-.08-.69-.26-.2-.08c-.02.07-.04.13-.07.2Z"/>
      <path class="cls-5" d="M19,21.11l.21.08.71.27.21.08s0-.08,0-.12c0-.03,0-.07,0-.1l-.21-.08-.7-.27-.21-.08c0,.07,0,.15,0,.22Z"/>
      <path class="cls-5" d="M19.18,22.14c.03.09.07.18.1.26l.29.11.55.21.26.1c-.03-.08-.06-.17-.09-.26l-.24-.09-.6-.23-.27-.1Z"/>
    </g>
    <text class="cls-16" transform="translate(22.52 23.3)"><tspan x="0" y="0">$</tspan></text>
  </g>
  <path class="cls-6" d="M55.25,12.28c-.2-.13-.4-.26-.6-.39-.04-.02-.07-.09-.06-.13.02-.28.06-.55.09-.82,0-.08.02-.12.1-.15.27-.11.54-.22.8-.33.04-.02.09-.04.16-.07-.13-.41-.26-.82-.39-1.24-.35.07-.66.13-.97.2-.11.03-.17.01-.24-.09-.15-.21-.32-.4-.48-.6-.02-.03-.03-.09-.02-.13.1-.28.21-.55.33-.82.06-.13.03-.2-.09-.26-.04-.02-.08-.06-.12-.09-.2-.11-.4-.21-.6-.32-.03,0-.05,0-.07-.01-.24-.1-.2-.1-.33.11-.17.25-.33.5-.47.71-.37-.03-.72-.06-1.08-.09-.14-.33-.28-.67-.43-1.02-.44.06-.84.2-1.23.39.07.34.14.67.21,1,.01.06,0,.1-.05.14-.23.17-.45.35-.66.54-.06.05-.1.05-.17.03-.28-.11-.56-.22-.83-.33-.07-.03-.11-.03-.16.04-.23.3-.38.64-.5.99-.02.07,0,.1.06.13.24.16.49.32.73.47.07.04.09.08.08.17-.05.32-.07.63-.11.98-.3.13-.64.27-.98.41.06.45.18.86.38,1.25.37-.08.73-.16,1.06-.22.21.23.39.46.59.66.08.08.09.14.05.24-.11.26-.22.53-.32.8-.02.05-.06.11.02.16.33.17.67.35,1,.52.07.04.12.01.16-.05.16-.25.33-.49.48-.74.06-.1.12-.1.22-.09.25.03.5.06.75.06.11,0,.15.03.18.12.12.31.25.61.37.91.27,0,.99-.23,1.25-.4-.07-.33-.14-.66-.22-.99-.02-.08,0-.12.07-.17.2-.16.39-.34.59-.5.03-.03.1-.04.14-.03.25.09.49.2.73.3.14.06.19.08.24.05l.56-1.06c0-.09-.06-.13-.22-.23ZM53.13,11.92c-.5.95-1.68,1.31-2.63.81h0c-.95-.5-1.31-1.68-.81-2.63h0c.5-.95,1.68-1.31,2.63-.81h0c.95.5,1.31,1.68.81,2.63h0Z"/>
  <path class="cls-14" d="M64.15,3.7c-.24,0-.48.01-.72,0-.04,0-.11-.04-.13-.07-.13-.24-.26-.48-.39-.72-.04-.07-.05-.11,0-.18.16-.24.32-.48.48-.72.03-.04.05-.08.09-.15-.34-.26-.67-.52-1.02-.79-.25.25-.47.47-.69.7-.08.08-.13.1-.25.06-.24-.09-.49-.15-.73-.22-.04-.01-.08-.06-.09-.09-.07-.28-.14-.57-.19-.85-.02-.14-.09-.18-.22-.16-.05,0-.1,0-.15,0-.22.02-.45.05-.67.07-.02,0-.05.02-.07.03-.26.05-.22.03-.22.27,0,.29,0,.59.01.84-.33.18-.63.35-.95.52-.3-.19-.61-.39-.92-.6-.33.29-.58.63-.8,1,.25.24.49.47.73.7.04.04.06.07.04.14-.09.27-.18.53-.25.81-.02.08-.05.1-.12.12-.29.06-.58.13-.88.19-.07.02-.11.04-.11.12-.02.37.04.73.14,1.09.02.07.06.08.13.08.29,0,.58,0,.87-.02.08,0,.12.02.16.1.14.28.29.56.45.86-.18.27-.38.57-.58.87.3.33.63.6,1.02.81.26-.27.52-.53.75-.77.3.08.58.16.86.22.11.02.15.06.17.17.05.28.12.55.18.83.01.05.01.13.1.12.37-.04.75-.09,1.12-.13.08,0,.1-.05.1-.13,0-.29,0-.58-.02-.87,0-.11.05-.15.14-.2.22-.11.45-.23.65-.36.09-.06.14-.06.22,0,.27.18.55.36.82.53.22-.15.69-.74.81-1.02-.24-.23-.48-.46-.73-.69-.06-.06-.06-.1-.04-.17.08-.24.14-.49.21-.74.01-.04.06-.09.1-.1.26-.06.52-.11.78-.16.15-.03.2-.04.23-.1l-.13-1.18c-.05-.07-.12-.07-.31-.07ZM61.57,4.64c.08.71-.44,1.34-1.16,1.42h0c-.72.08-1.36-.44-1.44-1.14h0c-.08-.71.44-1.34,1.16-1.42h0c.72-.08,1.36.44,1.44,1.14h0Z"/>
</svg>