<?xml version="1.0" encoding="UTF-8"?>
<svg id="Capa_1" data-name="Capa 1" xmlns="http://www.w3.org/2000/svg" viewBox="0 0 90.87 103.94">
  <defs>
    <style>
      .cls-1 {
        fill: #ffc792;
      }

      .cls-1, .cls-2, .cls-3, .cls-4, .cls-5, .cls-6, .cls-7, .cls-8, .cls-9, .cls-10 {
        stroke-width: 0px;
      }

      .cls-2 {
        opacity: .2;
      }

      .cls-2, .cls-5, .cls-6, .cls-8 {
        fill: #ae312f;
      }

      .cls-3 {
        fill: #ff9c3d;
      }

      .cls-4 {
        fill: #ea4949;
      }

      .cls-4, .cls-11, .cls-8 {
        opacity: .48;
      }

      .cls-6 {
        opacity: .21;
      }

      .cls-7 {
        fill: #fff;
      }

      .cls-9 {
        fill: #9befe6;
      }

      .cls-10 {
        fill: #f55;
      }
    </style>
  </defs>
  <polygon class="cls-9" points="90.65 68.83 60.96 64.22 40.32 86.07 35.53 56.4 8.38 43.53 35.11 29.8 38.97 0 60.28 21.19 89.82 15.64 76.25 42.46 90.65 68.83"/>
  <polygon class="cls-10" points="74.6 9.27 73.43 9.77 73.17 11.02 72.33 10.05 71.06 10.2 71.72 9.1 71.19 7.94 72.44 8.23 73.38 7.36 73.49 8.64 74.6 9.27"/>
  <polygon class="cls-10" points="28.39 58.88 27.13 61.87 28.88 64.61 25.65 64.33 23.59 66.84 22.85 63.69 19.83 62.5 22.61 60.82 22.79 57.58 25.25 59.7 28.39 58.88"/>
  <g>
    <path class="cls-3" d="M82.93,30.36c-.64-.52-1.32-1.01-2.05-1.48-.53-.34-1.08-.67-1.66-.98-.89-.49-1.84-.94-2.86-1.35-.83-.34-1.71-.65-2.63-.94.23-.71.39-1.41.47-2.1.02-.17.04-.35.05-.52.04-.55.02-1.1-.03-1.63-.03-.29-.07-.56-.12-.84,0-.04-.01-.07-.02-.11-.04-.24-.1-.48-.16-.71-.21-.77-.5-1.5-.86-2.18-.17-.34-.37-.67-.57-.99-.02-.03-.03-.05-.05-.08-.14-.21-.29-.42-.44-.62,0-.01-.02-.03-.03-.04-.19-.24-.39-.48-.59-.71-.2-.23-.42-.45-.63-.65-.26-.24-.52-.48-.8-.69-.81-.65-1.7-1.18-2.61-1.56-.74-.43-1.88-1.24-2.44-2.46-.86-1.86-2.04-3.25-3.24-3.29-.02,0-.04,0-.07,0-.96,0-2.82,3-2.18,5.84-.63.2-1.27.43-1.91.7-.88.37-1.77.79-2.65,1.25-.34.18-.67.36-1.01.55-1.31.74-2.58,1.57-3.77,2.44-.27.19-.53.39-.79.58-.63.48-1.24.97-1.82,1.46-.77.66-1.48,1.32-2.11,1.97-.71-.05-1.51-.22-2.22-.63-1.64-.95-3.27-1.42-4.31-.97-.1.05-.2.1-.29.17-.77.55-.21,4.03,2.06,6,0,0,0,0,0,0,.22.19.45.36.69.52,0,0,0,0,0,0,.21.13.43.25.66.35-.3,1.01-.44,2.03-.43,3.03,0,.6.07,1.2.18,1.79.03.18.07.36.12.53.04.17.09.34.14.5.15.51.35,1.01.58,1.5.12.25.24.49.39.73.2.36.42.71.66,1.05.18.25.37.49.57.73.14.17.29.34.44.5.25.27.5.52.75.74.19.17.38.33.56.48.1.08.2.15.3.22.73.53,1.44.88,2.1,1.12.62.22,1.2.34,1.73.39-.38,1.24-.98,3.6-.8,5.59,0,0-3.5-1.24-6.3-3.19-2.81-1.95-5.52-.87-8.13,1.39-2.62,2.26-4.88,6.95-2.17,8.04,2.71,1.08,6.99-.72,6.99-.72,0,0,3.6,2.98,7.19,3.07,0,0-1.23.39-2.56,1.66-.56.53-1.15,1.22-1.66,2.11-.36.62-.68,1.34-.95,2.16-.33,1.02-.56,2.2-.64,3.57-.07,1.24-.02,2.65.19,4.22,0,0-2.96,2.08-2.15,4.34.81,2.26,3.67,8.49,2.15,12.73s.45,3.98,1.72,2.89c1.27-1.08,3.19-7.08,2.15-12.77.2-.16.08-.15.34-.22,2.14-.57,4.4-1.02,4.4-1.02,0,0,.01.02.05.06.48.65,5.21,6.42,17.3,2.75,4.46-1.36,8.14-3.21,11.17-5.46,3.51-2.6,6.16-5.74,8.19-9.24.42-.72.82-1.47,1.18-2.22.45-.92.87-1.86,1.24-2.82.24-.6.47-1.21.68-1.83.1-.3.2-.59.29-.9.29-.96.52-1.98.68-3.03.21-1.33.32-2.7.3-4.11-.08-5.82-2.28-12.09-7.94-16.66Z"/>
    <g>
      <g>
        <path class="cls-3" d="M57.74,76.64c-.36.24-.72.55-1.08.93-.93.96-1.85,2.32-2.55,3.85,0,0,0,0,0,0-.72,1.53-1.22,3.23-1.32,4.85-.16,2.65-.37,8.19-3.81,11.81-1.15,1.2-2.65,2.2-4.63,2.8-.72.22-1.51.39-2.37.5-9.09,1.13-12.74-4-13.96-9.05-.32-1.31-.47-2.61-.52-3.79-.03-.89,0-1.71.06-2.43.13-1.4.29-2.64.49-3.7.55-2.95,1.44-4.47,3.13-3.84,1.28.48.99,2.22.49,4.53-.68,3.24-1.76,7.62.58,11.21.54.84,1.28,1.63,2.24,2.36.22.17.45.33.7.49,3.09,2,6.86,2.05,9.85-.18,1.71-1.28,2.99-3.11,3.76-5.09.16-.42.3-.84.42-1.28h0c.18-.66.31-1.34.39-2.02.1-.91.14-1.83.21-2.73.11-1.51.27-3.01.79-4.47.74-2.05,2-3.93,3.59-5.4.1-.09.52-.58.67-.57,0,0,5.19.24,2.86,1.22Z"/>
        <path class="cls-2" d="M57.74,76.64c-.36.24-.72.55-1.08.93-.93.96-1.85,2.32-2.55,3.85,0,0,0,0,0,0-.72,1.53-1.22,3.23-1.32,4.85-.16,2.65-.37,8.19-3.81,11.81-1.15,1.2-2.65,2.2-4.63,2.8-.72.22-1.51.39-2.37.5-9.09,1.13-12.74-4-13.96-9.05-.32-1.31-.47-2.61-.52-3.79-.03-.89,0-1.71.06-2.43.13-1.4.29-2.64.49-3.7.55-2.95,1.44-4.47,3.13-3.84,1.28.48.99,2.22.49,4.53-.68,3.24-1.76,7.62.58,11.21.54.84,1.28,1.63,2.24,2.36.22.17.45.33.7.49,3.09,2,6.86,2.05,9.85-.18,1.71-1.28,2.99-3.11,3.76-5.09.16-.42.3-.84.42-1.28h0c.18-.66.31-1.34.39-2.02.1-.91.14-1.83.21-2.73.11-1.51.27-3.01.79-4.47.74-2.05,2-3.93,3.59-5.4.1-.09.52-.58.67-.57,0,0,5.19.24,2.86,1.22Z"/>
      </g>
      <path class="cls-5" d="M31.67,83.1c-.35-.95-.32-2.01-.32-2.01-.99,1.37-2.36,1.47-3.31,1.32.55-2.95,1.44-4.47,3.13-3.84,1.28.48.99,2.22.49,4.53Z"/>
      <path class="cls-5" d="M28.01,92.33c-.32-1.31-.47-2.61-.52-3.79.62.12,1.56.47,1.97,1.55.38,1-.6,1.78-1.46,2.25Z"/>
      <path class="cls-5" d="M34.49,96.67c-.47.42-1.37,1.03-2.1.24-.78-.85-.38-2.06-.14-2.6.54.84,1.28,1.63,2.24,2.36Z"/>
      <path class="cls-5" d="M48.97,98.08c-1.15,1.2-2.65,2.2-4.63,2.8.1-.7.5-1.73,1.82-2.67,1.1-.79,2.08-.57,2.82-.13Z"/>
      <path class="cls-5" d="M51.43,89.01c-.24,1.16-1.55,1.51-2.2,1.61.18-.66.31-1.34.39-2.02.1-.91.14-1.83.21-2.73.73.76,1.82,2.1,1.6,3.14Z"/>
      <path class="cls-5" d="M56.66,77.57c-.93.96-1.85,2.32-2.55,3.85-.17-.89-.2-2.03.39-2.87.54-.77,1.41-.97,2.16-.98Z"/>
    </g>
    <g>
      <path class="cls-3" d="M83.14,66.76c-.19,0-3.57,4.16-3.83,9.55-.13,2.66-.04,5.33-.72,7.92-.84,3.23-2.88,5.82-5.83,7.38-.94.5-1.93.89-2.95,1.2-.57.17-1.15.32-1.73.45-.25.06-.6.06-.77.24-.2.21-.29.77-.37,1.05-.42,1.43-.55,2.93-.69,4.41-.13,1.33-.08,3.12-.84,4.26-.47.71-1.4,1.02-2.03.32-.44-.49-.44-1.22-.4-1.88.09-1.8.23-3.61.23-5.42,0-1.51.08-3.8.73-5.21.3-.65,1.3-1.92,2.32-1.53,0,0-7.3-7.73-4.65-13.9,2.64-6.17,21.55-8.84,21.55-8.84Z"/>
      <path class="cls-2" d="M83.14,66.76c-.19,0-3.57,4.16-3.83,9.55-.13,2.66-.04,5.33-.72,7.92-.84,3.23-2.88,5.82-5.83,7.38-.94.5-1.93.89-2.95,1.2-.57.17-1.15.32-1.73.45-.25.06-.6.06-.77.24-.2.21-.29.77-.37,1.05-.42,1.43-.55,2.93-.69,4.41-.13,1.33-.08,3.12-.84,4.26-.47.71-1.4,1.02-2.03.32-.44-.49-.44-1.22-.4-1.88.09-1.8.23-3.61.23-5.42,0-1.51.08-3.8.73-5.21.3-.65,1.3-1.92,2.32-1.53,0,0-7.3-7.73-4.65-13.9,2.64-6.17,21.55-8.84,21.55-8.84Z"/>
    </g>
    <path class="cls-5" d="M60.42,14.36c-2.71-3.21-.07-7.94,1.14-7.95.02,0,.04,0,.07,0-.14.3-.3.77-.3,1.43,0,.66.15,1.5.61,2.54.85,1.91.05,3.12-.79,3.67-.25.17-.51.27-.73.31Z"/>
    <g>
      <path class="cls-5" d="M40.56,25.77s0,0,0,0c.03.03.29.3.69.52,0,0,0,0,0,0,.22.12.55.2.91.22.63.03,1.37-.14,1.81-.67,1.09-1.31-2.64-2.36-4.37-4.17-.57-.6-.92-1.27-.82-2.07-.1.05-.2.1-.29.17-.77.55-.21,4.03,2.06,6.01Z"/>
      <path class="cls-7" d="M41.65,24.81s-.08.99.52,1.7c.63.03,1.37-.14,1.81-.67,1.09-1.31-2.64-2.36-4.37-4.17.17.64.55,1.53,1.42,2.18,0,0-.93-.08-1.01.12-.08.2,1.06.44,1.12.45-.05,0-.58.03-.59.26,0,.25,1.09.13,1.09.13Z"/>
    </g>
    <path class="cls-7" d="M61.15,14.04c-2.03-1.52-.44-3.34-.44-3.34,0,0-.55.13-.61-.21-.05-.33.53-.29.58-.28-.02-.02-.49-.36-.49-.58,0-.23.55.05.55.05-.18-.88.31-1.55.58-1.84,0,.66.15,1.5.61,2.54.85,1.91.05,3.12-.79,3.67Z"/>
    <path class="cls-5" d="M48.08,34.67c-.16.92-.89,1.62-1.58,2.2-.38.31-.76.62-1.16.9-.25-.22-.5-.47-.75-.74-.15-.16-.3-.33-.44-.5-.2-.24-.39-.49-.57-.73-.24-.34-.47-.69-.66-1.05.08,0,.17,0,.25-.03.61-.13,1.21-.43,1.79-.77.52-.31,1.05-.65,1.62-.76.56-.11,1.18.06,1.43.6.12.26.14.58.08.88Z"/>
    <path class="cls-5" d="M43.44,33.27c-.28.31-.58.55-.91.74-.23-.49-.43-.99-.58-1.5-.05-.17-.1-.34-.14-.5-.04-.18-.08-.36-.12-.53h.02c.67-.07,1.36-.56,2.01-.3.16.06.3.17.38.34.29.62-.24,1.3-.65,1.76Z"/>
    <path class="cls-5" d="M48.68,38.46c-.09.39-.22.77-.39,1.13-.66-.24-1.37-.59-2.1-1.12.49-.27.94-.63,1.33-1.09.12-.14.24-.29.39-.37.31-.16.65.04.78.37.12.32.08.71,0,1.08Z"/>
    <g>
      <path class="cls-5" d="M53.89,19.08s.25-1.18.74-1.24c.49-.06.29,1.25-.38,1.88,0,0-1.65.03-1.64-.71.01-.74,1.29.07,1.29.07Z"/>
      <path class="cls-5" d="M59,24.12c-.39-.4-.79-.8-1.19-1.2l-1.21-1.18-1.22-1.17c-.41-.39-.81-.78-1.22-1.16l-.21-.19.03.28c.06.54.14,1.07.23,1.6.09.53.2,1.06.32,1.59.13.52.27,1.05.43,1.56.17.51.36,1.02.58,1.51-.18-.51-.35-1.02-.48-1.54-.14-.52-.26-1.04-.37-1.57-.21-1.05-.39-2.11-.5-3.18l-.18.09c.41.39.82.77,1.23,1.16l1.24,1.15,1.25,1.14c.42.37.84.75,1.27,1.12Z"/>
      <path class="cls-8" d="M55.78,19.04c.57-.11,1.23,0,1.8.42.83.6,1.43,1.57,1.28,2.57-.09.62-.43,1.09-.82,1.47-.74.73-1.54,1.39-2.6,1.54-.39.06-.8.05-1.21-.09-.63-.22-1.24-.78-1.59-1.47s-.43-1.48-.22-2.09c.26-.75.95-1.28,1.58-1.59.56-.27,1.16-.65,1.78-.78Z"/>
    </g>
    <path class="cls-4" d="M48.66,27.58c.84.06,1.43.86.99,1.69-.59,1.11-2.39,2.01-3.63,1.76-1.05-.21-1.27-1.58-.64-2.21.54-.54,1.25-.87,1.97-1.06.34-.09.84-.21,1.31-.17Z"/>
    <path class="cls-4" d="M65.93,16.73c.85-.18,1.8.47,1.76,1.45-.04,1.31-1.36,2.76-2.69,2.86-1.12.08-1.99-1.26-1.67-2.09.27-.71.8-1.26,1.41-1.66.29-.19.71-.46,1.19-.56Z"/>
    <path class="cls-5" d="M74.09,20.52c-.51.16-1.03.29-1.56.4-.57.12-1.18.22-1.76.11-.58-.1-1.11-.47-1.11-.91,0-.39.41-.72.81-.98.84-.55,1.77-1.04,2.57-1.63.36.69.65,1.42.86,2.18.06.23.12.47.16.71,0,.04.01.07.02.11Z"/>
    <path class="cls-5" d="M74.24,22.99c0,.17-.03.35-.05.52-.58-.05-1.15-.2-1.59-.48-.33-.2-.59-.51-.5-.82.07-.23.32-.41.61-.52.29-.11.61-.15.92-.21.2-.04.4-.08.59-.14.05.53.07,1.08.03,1.63Z"/>
    <path class="cls-5" d="M72.42,16.45c-.11.04-.22.08-.34.11-.37.11-.76.2-1.13.2-.37-.01-.72-.14-.78-.36-.06-.25.25-.52.53-.75.22-.18.44-.38.65-.56.2.23.4.47.59.71.01.01.02.03.03.04.15.2.3.41.44.62Z"/>
    <g>
      <path class="cls-5" d="M70.29,16.67c-.65.18-1.27.42-1.88.67-.61.26-1.22.53-1.8.86.65-.18,1.27-.42,1.88-.67.61-.26,1.22-.53,1.8-.86Z"/>
      <path class="cls-5" d="M69.58,15.17c-.57.32-1.1.68-1.62,1.06-.52.39-1.03.78-1.5,1.23.57-.31,1.1-.68,1.62-1.06.52-.39,1.03-.78,1.5-1.23Z"/>
      <path class="cls-5" d="M68.05,13.81c-.38.53-.7,1.1-1.01,1.67-.3.57-.59,1.16-.82,1.77.38-.53.7-1.1,1.01-1.67.3-.57.59-1.16.82-1.77Z"/>
    </g>
    <g>
      <path class="cls-5" d="M46.78,29.58c-.61.3-1.18.65-1.75,1.01-.56.37-1.11.75-1.63,1.19.61-.3,1.18-.65,1.75-1.01.56-.37,1.11-.75,1.63-1.19Z"/>
      <path class="cls-5" d="M42.57,30.36c.64-.14,1.25-.33,1.86-.54.61-.22,1.21-.45,1.79-.74-.64.13-1.25.33-1.86.54-.61.22-1.21.45-1.79.74Z"/>
      <path class="cls-5" d="M42.39,28.3c.62.16,1.26.25,1.89.33.63.07,1.27.13,1.91.12-.62-.16-1.26-.25-1.89-.33-.63-.07-1.27-.13-1.91-.12Z"/>
    </g>
    <g>
      <g>
        <path class="cls-7" d="M49.03,27.98c1.1-.66,2.04-2.02,2.17-3.24.03-.26.02-.52-.04-.77-.26-1.09-1.21-2.05-2.25-2.49-.02-.01-.05-.02-.07-.03-1.06-.43-2.31-.22-3.28.49-1.14.83-2.15,2.36-1.82,3.71.13.53.44,1.04.85,1.47h0c1.1,1.15,2.98,1.75,4.45.87Z"/>
        <path class="cls-5" d="M47.84,28.39c-.41.05-.83.02-1.23-.07-.4-.09-.78-.24-1.13-.43-.35-.19-.68-.43-.96-.71l-.04-.04.03-.05h0s0,.09,0,.09c-.28-.27-.52-.59-.7-.94-.18-.35-.3-.75-.29-1.16,0-.83.38-1.65.91-2.31.27-.33.57-.64.92-.9.34-.27.74-.48,1.15-.62.83-.28,1.72-.25,2.49.1h-.01c.64.29,1.18.73,1.6,1.27.21.27.38.57.5.88.13.32.2.66.18,1.01-.02.35-.1.7-.23,1.03-.13.33-.29.65-.49.95-.4.59-.91,1.13-1.52,1.5-.36.22-.77.36-1.19.41ZM50.53,26.47c.37-.6.63-1.28.63-1.95,0-.33-.09-.65-.22-.95-.13-.3-.31-.57-.53-.82-.42-.49-.97-.88-1.57-1.13h-.01c-.07-.04-.17-.07-.25-.1-.09-.02-.18-.05-.27-.07-.18-.04-.37-.05-.56-.06-.19,0-.38.02-.57.04-.19.03-.38.08-.56.14-.74.25-1.37.77-1.88,1.38-.5.61-.87,1.34-.92,2.09-.02.37.06.74.21,1.08.15.34.36.65.62.93l.04.04-.03.05h0s0-.09,0-.09c.26.29.56.54.9.74.33.21.7.37,1.09.47.39.1.8.15,1.22.1.41-.04.82-.18,1.19-.39.61-.38,1.12-.92,1.5-1.52Z"/>
      </g>
      <path class="cls-5" d="M49.91,25.71c-.37.87-1.22,1.61-2.18,1.74-1.52.22-2.97-.98-2.94-2.46.02-.79.44-1.66,1.11-2.18,1.78-1.38,4.33.14,4.2,2.15-.02.25-.08.5-.19.74Z"/>
      <path class="cls-6" d="M44.59,27.12c.51-4.41,3.89-5.51,4.33-5.64-.02-.01-.05-.02-.07-.03-1.06-.43-2.31-.22-3.28.49-1.14.83-2.15,2.36-1.82,3.71.13.53.44,1.04.85,1.47Z"/>
    </g>
    <g>
      <g>
        <path class="cls-7" d="M60.97,19.84c1.36-.06,2.96-.79,3.72-1.78.16-.21.29-.44.36-.69.33-1.07-.05-2.33-.77-3.2-.01-.02-.03-.04-.05-.06-.76-.86-2.03-1.27-3.3-1.11-1.49.19-3.24,1.03-3.64,2.35-.16.52-.14,1.1.02,1.66h0c.42,1.5,1.84,2.9,3.67,2.83Z"/>
        <path class="cls-5" d="M59.66,19.64c-.41-.15-.78-.37-1.1-.64-.32-.27-.59-.57-.82-.9-.22-.33-.4-.69-.52-1.06l-.02-.05.06-.03h0s-.04.08-.04.08c-.11-.37-.17-.75-.15-1.13.02-.38.12-.78.34-1.14.44-.72,1.22-1.24,2.06-1.57.42-.16.87-.28,1.32-.35.46-.08.94-.07,1.39,0,.92.14,1.73.59,2.26,1.25h0c.43.55.71,1.18.81,1.84.05.33.05.67,0,1-.05.33-.16.67-.36.96-.2.29-.46.55-.75.78-.29.23-.61.42-.95.59-.68.32-1.43.55-2.2.58-.45.02-.91-.05-1.32-.21ZM63.16,19.23c.66-.34,1.26-.81,1.61-1.39.17-.29.26-.6.29-.92.03-.32,0-.64-.06-.95-.13-.62-.44-1.21-.87-1.71h0c-.05-.07-.12-.14-.19-.21-.07-.06-.14-.13-.22-.18-.15-.12-.32-.22-.49-.31-.17-.09-.36-.16-.55-.23-.19-.06-.39-.11-.6-.14-.81-.13-1.68.02-2.47.31-.79.29-1.51.75-1.95,1.37-.22.31-.33.67-.37,1.03-.04.36,0,.73.08,1.09v.05s-.04.03-.04.03h0s.04-.08.04-.08c.09.37.24.72.44,1.06.2.33.45.65.76.92.31.27.67.5,1.07.65.41.16.86.23,1.31.22.77-.04,1.52-.26,2.19-.61Z"/>
      </g>
      <path class="cls-5" d="M62.98,18.29c-.8.57-1.98.81-2.94.48-1.53-.53-2.24-2.23-1.44-3.49.43-.68,1.29-1.23,2.18-1.36,2.38-.36,3.94,2.14,2.76,3.82-.15.21-.34.39-.56.55Z"/>
      <path class="cls-6" d="M57.3,17.01c2.79-3.57,6.51-2.94,6.98-2.84-.01-.02-.03-.04-.05-.06-.76-.86-2.03-1.27-3.3-1.11-1.49.19-3.24,1.03-3.64,2.35-.16.52-.14,1.1.02,1.66Z"/>
    </g>
    <path class="cls-8" d="M73.64,23.49c.14.16.27.33.4.51.12.18.23.36.28.56.02.1.02.19-.03.26-.05.07-.14.1-.24.1-.19,0-.4-.09-.58-.18l-.25-.13.14.24c.12.2.22.41.3.62.08.21.15.43.15.65,0,.11-.02.2-.07.29-.05.09-.12.14-.2.16-.18.04-.4-.07-.57-.19l-.13-.09-.04.15c-.11.42-.26.84-.43,1.24-.17.4-.38.79-.61,1.17-.22.38-.48.74-.77,1.07-.28.35-.61.64-.94.93.36-.25.72-.53,1.02-.86.31-.33.59-.68.83-1.05.25-.37.46-.77.64-1.18.18-.41.34-.83.46-1.27l-.17.06c.11.08.22.13.34.18.12.04.26.07.4.04.15-.03.27-.14.33-.26.07-.12.1-.26.09-.39,0-.26-.09-.49-.18-.71-.09-.22-.21-.43-.34-.63l-.1.11c.21.09.41.17.65.17.11,0,.26-.05.33-.16.07-.11.07-.25.04-.36-.07-.22-.2-.4-.33-.57-.13-.17-.28-.33-.44-.47Z"/>
    <path class="cls-5" d="M57.16,11.43c-.39.1-1.17.76-.66,1.2.07.06.16.08.25.1.71.15,2.31.07,2.64-.74.09-.23-.03-.5-.22-.65-.58-.44-1.41-.07-2.01.09Z"/>
    <path class="cls-5" d="M44.61,19.55c-.27.3-.57,1.28.1,1.36.09.01.18-.02.27-.05.67-.26,1.98-1.2,1.81-2.06-.05-.24-.3-.41-.54-.43-.72-.05-1.22.71-1.64,1.17Z"/>
    <g class="cls-11">
      <path class="cls-5" d="M89.29,43.14c-1.86,5.43-9.06,4.59-13.34,2.85,0,0,.61-.52.61-.52.04.2.05.35.03.57-.08.98-1.29.97-1.67.15-.31-.61-.41-1.18-.49-1.78h.65c-.12.47-.26,1.71-1.03,1.49-.32-.17-.33-.41-.39-.59-.14-.75-.09-1.46,0-2.17.12.75.08,1.79.55,2.31.26-.63.28-2.66.34-3.43.28.94.56,3.35,1.22,3.92-.11.05-.08.1-.07,0,0-.07-.01-.2-.03-.28l-.21-.8c4.4,1.5,10.98,3.14,13.83-1.73h0Z"/>
    </g>
    <path class="cls-10" d="M59.35,42.24c-.06.62.11,1.22.44,1.73-.92.07-2.52.19-2.64.21-.16.03-1.26-3.42-1.26-3.42l-.17-.75,1.79-1.12,2.93.61v.86c-.54.52-1,1.09-1.08,1.88Z"/>
    <path class="cls-7" d="M50.31,40.01s3.34,1.46,5.58,1.92c0,0,1.86-3.04,1.61-3.04s-3.1.64-7.19,1.12Z"/>
    <path class="cls-7" d="M57.5,38.88l3.04,1.52s4.65-4.59,5.12-5.67c-.18,0-5.8,3.52-8.17,4.15Z"/>
    <g class="cls-11">
      <path class="cls-5" d="M45.06,75.07c.32-.37.84-.47,1.29-.6,5.52-1.05,9.07-4.12,9.24-9.98.09-1.84,0-3.71-.26-5.59.64,1.78,1,3.68,1.04,5.6.29,6.15-3.99,10.1-9.98,10.22-.46.07-.94.06-1.33.34h0Z"/>
    </g>
    <path class="cls-5" d="M35.22,52.13c-.4-1.64.68-3.88,2.51-3.95-1.04,1.32-1.47,2.58-2.51,3.95h0Z"/>
    <path class="cls-5" d="M31.88,51.3c-.4-1.76.59-4.02,2.44-4.45-.88,1.46-1.45,2.99-2.44,4.45h0Z"/>
    <g class="cls-11">
      <path class="cls-5" d="M82.61,36.17c-8.35-4.96-12.67-3.85-19.68,2.54,0,0-2.05,1.89-2.05,1.89-.68.61-1.13,1.26-1.06,2.04.13,1.71,2,2.69,3.64,2.52,3.55-.27,7.08-3.15,10.8-2.33-3.91-.35-6.9,2.63-10.74,3.1-.97.11-2.07-.01-2.96-.6-1.37-.79-2.22-2.76-1.34-4.24.51-.95,2.29-2.36,3.04-3.12,7.04-6.44,12.38-7.73,20.35-1.8h0Z"/>
    </g>
    <path class="cls-5" d="M61.88,45.57c-.34-1.34.88-2.74,2.25-2.75-.56,1.18-1.24,1.88-2.25,2.75h0Z"/>
    <path class="cls-5" d="M59.94,44.18c-.52-1.73,1.17-3.73,2.95-3.6-1.12,1.18-2.05,2.25-2.95,3.6h0Z"/>
    <path class="cls-5" d="M62.96,102.38c.47-1.02.69-1.94,1.53-2.73.56,1.11-.2,2.84-1.53,2.73h0Z"/>
    <path class="cls-5" d="M40.79,86.28c.49-1.03.77-1.72,1.7-2.34.42,1.1-.49,2.56-1.7,2.34h0Z"/>
    <path class="cls-5" d="M41.18,88.48c.57-.81,1.01-1.29,1.58-1.95.19-.21.37-.43.65-.67.25.67.03,1.4-.41,1.91-.45.51-1.12.86-1.82.7h0Z"/>
    <g class="cls-11">
      <path class="cls-5" d="M55.69,60.65c.28.2.69.36.84.15-.16-.48-.51-1.08-.79-1.57-.08-.17-.21-.3-.22-.53,0-.08.04-.27.19-.38.13-.11.32-.1.29-.1.08,0,.29.08.28.09.41.27.75.55,1.15.76.1.06.22.08.18.08-.01,0-.13.03-.19.15-.05.14-.02.14-.03.13-.15-.47-.63-.96-.92-1.38.79-.37,1.53-.87,2.03-1.63-.07.84-.59,1.57-1.26,2.09,0,0,.07-.59.07-.59.63.47,1.75,1.9.39,2.21-.85,0-1.35-.57-1.94-1.01.1.05.27.12.5-.04.19-.16.2-.33.17-.48-.02-.06,0,.01.01.03.27.69.62,1.36.58,2.14-.16.85-1.12.45-1.34-.11h0Z"/>
    </g>
    <g class="cls-11">
      <path class="cls-5" d="M39.61,51.08c.78-1.31,1.52-2.04,2.78-2.9.01,1.52-1.27,2.81-2.78,2.9h0Z"/>
    </g>
    <path class="cls-1" d="M78.31,71.18c-3.04,2.25-6.71,4.11-11.17,5.46-12.09,3.67-16.82-2.1-17.3-2.75,2.13-.65,6.66-2.91,6.15-10.26,0,0,4.68-2.36,5.89-7.21,1.21-4.86.38-8.04,5.79-9.57,5.41-1.53,14.2,3.66,14.94,10.95.46,4.53-1.57,9.71-4.3,13.38Z"/>
    <g class="cls-11">
      <path class="cls-5" d="M71.21,52.13c.78.49,1.6.94,1.88,1.94.03,1.6-1.6.67-2.44-.23,0,0,.72-.42.72-.42.37,1.09.72,2.07.64,3.29-.03.39-.21.85-.63,1.05-.41.26-1.09-.03-1.28-.43-.35-.6-.44-1.12-.53-1.7l.92-.05c-.2,2.07-.82,4.69-2.97,5.5,2.81-2.15,1.87-7,2.04-10.08,0,0,.92,4.51.92,4.51.11.49.23,1.1.51,1.38-.02-.03-.09,0-.05-.02.37-1.49-.59-3.61-.96-5.12,0,0,1.29,1.53,1.29,1.53.31.36.79.89,1.2,1.03-.03.05.07-.03.07-.18-.07-.73-.83-1.44-1.34-1.99h0Z"/>
    </g>
    <path class="cls-8" d="M59.6,35.77c-.31.12-.63.25-.94.37-.32.12-.63.23-.95.32l-.15.04.14.08c.16.09.33.22.41.37.04.08.05.15.03.23-.01.04-.03.06-.04.07-.02,0-.05.01-.09,0-.16-.04-.34-.15-.5-.25-.16-.11-.32-.23-.46-.36l-.2-.18.03.27c.02.17.03.34.02.51,0,.16-.04.34-.11.44-.02.02-.02.01-.01.02,0,0-.02,0-.05-.04-.05-.05-.09-.12-.13-.19-.08-.15-.15-.31-.2-.46l-.04-.11-.11.04c-.48.19-.98.34-1.49.43-.51.09-1.03.12-1.54.02l-.26-.05.18.19c.15.15.3.34.36.53,0,.02,0,.05,0,.07,0,.02,0,.01,0,0,0,0,0,0,0,0-.03.01-.09.02-.14.02-.11,0-.22-.02-.33-.03-.45-.07-.89-.19-1.34-.31.43.16.87.3,1.32.41.11.02.23.05.35.05.06,0,.12,0,.2-.03.02,0,.04-.03.06-.05.01-.03.02-.06.02-.07,0-.04,0-.07,0-.1-.06-.25-.22-.44-.38-.62l-.08.14c.27.06.54.09.81.09.27,0,.54-.03.8-.07.53-.09,1.04-.23,1.55-.42l-.15-.07c.06.17.13.34.22.5.05.08.1.16.17.24.04.04.09.08.18.1.09.01.18-.05.21-.1.14-.19.14-.38.15-.57,0-.18,0-.36-.03-.55l-.17.09c.16.13.32.26.49.37.17.11.35.23.58.27.06,0,.13,0,.2-.03.07-.04.11-.12.12-.17.04-.12,0-.25-.05-.35-.12-.2-.3-.31-.49-.41v.12c.31-.1.62-.24.93-.38.31-.14.61-.28.91-.44Z"/>
    <g class="cls-11">
      <path class="cls-5" d="M52.3,52.41c-.44-1.19-.75-2.43-.74-3.71.02-1.26.26-2.6,1.04-3.66,0,.66-.02,1.26-.04,1.86-.08,1.8.17,3.75-.27,5.51h0Z"/>
    </g>
    <path class="cls-10" d="M57.77,43.71c.05.18-.14,5.62-3.4,6.21-3.26.59-4.39-2.72-6.89-2.67-2.49.05-6.29,5.48-6.29,5.48l6.61,2.84s2.13-2.84,5.03-1.61c2.9,1.22,8.61.63,7.02-10.24h-2.08Z"/>
    <path class="cls-5" d="M45.19,66.2c-.11.2-.37.3-.61.28-.23-.02-.45-.14-.65-.26-1.13-.66-2.03-1.62-2.94-2.56.08-1.37.31-2.55.64-3.57,0,.01.01.02.02.03.94,1.79,2.03,3.49,3.26,5.09.22.29.46.67.28.99Z"/>
    <path class="cls-5" d="M45.96,59.47c.01.31-.13.63-.41.75-.33.13-.69-.08-.98-.29-.73-.55-1.41-1.25-1.99-2,.51-.89,1.1-1.58,1.66-2.11.17.23.32.5.44.76.33.68.66,1.36.99,2.04.13.27.27.55.28.86Z"/>
    <path class="cls-5" d="M79.21,27.89c-.62,1.03-1.64,1.83-2.74,2.36-.65.32-1.35.56-2.07.55-.47,0-1.05-.25-1.03-.72,0-.2.13-.39.26-.54.57-.69,1.29-1.23,1.92-1.87.37-.37.61-.73.81-1.13,1.02.41,1.97.86,2.86,1.35Z"/>
    <path class="cls-5" d="M82.93,30.36c-.21.22-.45.42-.68.6-.64.49-1.32.88-2.13,1-.19.03-.4.04-.59-.03-.33-.11-.48-.48-.41-.81.13-.66,1.05-1.3,1.41-1.77.11-.14.22-.31.35-.47.73.47,1.41.97,2.05,1.48Z"/>
    <path class="cls-5" d="M90.87,47.02c.02,1.41-.08,2.79-.3,4.11-1.38.32-2.81.34-4.22.18-.76-.09-1.69-.39-1.79-1.15-.06-.46.25-.9.64-1.15.39-.25.86-.34,1.31-.43,1.2-.24,2.41-.53,3.51-1.07.29-.14.57-.3.85-.49Z"/>
    <path class="cls-5" d="M89.89,54.17c-.09.31-.19.6-.29.9-.21.62-.44,1.23-.68,1.83-1.03-.11-2.02-.5-2.93-1.01-.3-.17-.63-.43-.58-.77.04-.3.36-.47.64-.56,1.24-.4,2.57-.18,3.84-.39Z"/>
    <path class="cls-5" d="M87.69,59.71c-.37.75-.76,1.5-1.18,2.22-.39-.19-.76-.44-1.06-.76-.41-.44-.68-1.04-.62-1.64.02-.18.07-.37.21-.49.22-.2.56-.16.85-.08.63.18,1.2.5,1.8.75Z"/>
    <path class="cls-5" d="M84.08,46.75c-1.29.17-2.63.08-3.83-.1.13-.43.21-.87.22-1.32.04-.88-.08-1.76-.02-2.65.04-.55.19-1.17.66-1.47.51-.33,1.21-.14,1.66.27.44.41.67,1,.85,1.57.37,1.19.61,2.46.46,3.69Z"/>
    <path class="cls-5" d="M74.55,38.17c-.12.35-.42.67-.79.73-.65.1-1.14-.57-1.42-1.17-.46-.96-.85-1.96-1.44-2.85-.4-.6-.89-.93-1.4-1.31,1.16-.49,2.38-.82,3.62-.89.1.15.19.3.28.46.67,1.2,1.09,2.55,1.22,3.93.03.37.04.76-.08,1.11Z"/>
  </g>
  <g>
    <path class="cls-5" d="M12.97,56.67c-.54,1.08-3.87.49-7.43-1.3-3.56-1.79-6.01-4.12-5.47-5.19.54-1.08,3.87-.49,7.43,1.3,3.56,1.79,6.01,4.12,5.47,5.19Z"/>
    <polygon class="cls-5" points="12.97 56.67 14.75 53.4 1.85 46.91 .08 50.17 12.97 56.67"/>
    <path class="cls-3" d="M30.78,27.27s-.03.17-.11.47c-.11.46-.33,1.23-.65,2.16-.71,1.99-1.95,4.74-3.96,6.96-.76.84-1.63,1.61-2.62,2.23-.88.55-1.68.99-2.41,1.32-2.62,1.2-4.38,1.1-6.12.41-.55-.22-1.09-.5-1.66-.82h0c-.36-.2-.73-.42-1.11-.64-.19-.11-.38-.23-.56-.37-3.1-2.32-4.83-8.03-3.14-12.85,1.78-5.1,4.05-8.08,4.05-8.08l13.81,6.96,4.49,2.26Z"/>
    <polygon class="cls-7" points="19 28.61 19.09 30.48 20.68 31.47 18.93 32.13 18.48 33.95 17.31 32.49 15.44 32.62 16.47 31.06 15.76 29.32 17.57 29.82 19 28.61"/>
    <path class="cls-10" d="M30.78,27.31c-.15.29-.5.47-1.02.54-1.76.22-5.41-.83-9.32-2.8-3.89-1.96-6.89-4.25-7.77-5.8-.27-.47-.34-.86-.19-1.17.65-1.3,5.28-.29,10.34,2.26,5.05,2.55,8.62,5.67,7.96,6.97Z"/>
    <path class="cls-5" d="M29.76,27.85c-1.76.22-5.41-.83-9.32-2.8-3.89-1.96-6.89-4.25-7.77-5.8,1.24-.69,5.19.3,9.48,2.46,4.27,2.15,7.42,4.73,7.62,6.14Z"/>
    <path class="cls-3" d="M14.75,53.4c-.54,1.08-3.87.49-7.43-1.3-.53-.26-1.03-.54-1.5-.83-2.72-1.63-4.43-3.46-3.96-4.37.32-.63,1.61-.69,3.35-.26h0c1.21.3,2.62.83,4.08,1.56.62.31,1.21.64,1.75.98.84.52,1.57,1.05,2.16,1.57h0c1.23,1.07,1.85,2.05,1.55,2.65Z"/>
    <path class="cls-3" d="M15.23,40.04c-.05.17-.12.35-.21.56-.03.08-.07.15-.1.23-2.49,5.56-1.71,9.94-1.71,9.94h0c-.87.12-1.65.13-2.34.05-4.35-.44-5.6-4.04-5.65-4.16h0c3.6-2.37,6.38-7.66,6.38-7.66,0,0,4.49-1.69,3.65,1.05Z"/>
    <path class="cls-3" d="M7.82,36.84c-.37,0-.72-.21-.89-.57-.23-.49-.01-1.07.48-1.29.14-.07.22-.15.27-.29.18-.51-.1-1.49-.46-2.18-.41-.8-.93-1.44-1.46-1.79-2.1-1.41-4.62-3.44-5.4-6.67-.37-1.55-.22-3.1.42-4.38,1.19-2.37,4.12-3.44,6.8-2.5,1.97.69,3.7,2.36,4.75,4.6.23.49.02,1.07-.47,1.3-.49.23-1.07.02-1.3-.47-.83-1.76-2.15-3.07-3.63-3.58-1.5-.53-3.55-.16-4.41,1.54-.43.87-.53,1.95-.27,3.04.62,2.57,2.77,4.29,4.58,5.5,1.02.68,1.71,1.75,2.11,2.52.26.5,1.07,2.26.57,3.72-.22.65-.67,1.14-1.3,1.43-.13.06-.27.09-.41.09Z"/>
    <path class="cls-3" d="M38.82,35.2c-.52,1.33-1.57,2.49-2.97,3.24-2.92,1.59-6.11,1.08-8.57.46-.62-.16-1.44-.12-2.31.11-.76.2-1.66.65-1.93,1.12-.07.13-.08.24-.03.39.16.52-.13,1.06-.64,1.22-.09.03-.19.05-.29.05-.42,0-.8-.27-.93-.69-.07-.23-.11-.46-.12-.69,0-.42.1-.84.31-1.23.75-1.35,2.59-1.92,3.14-2.07.43-.12.98-.22,1.58-.26.55-.03,1.13,0,1.7.14,2.24.57,4.85.98,7.16-.28.99-.54,1.73-1.33,2.08-2.24.69-1.78-.42-3.54-1.81-4.31-1.38-.75-3.23-.86-5.09-.3-.03,0-.05.01-.08.02-.49.11-.99-.18-1.14-.67-.16-.52.14-1.06.65-1.22.38-.11.76-.21,1.14-.27,1.98-.37,3.92-.12,5.46.72,2.49,1.37,3.65,4.26,2.69,6.73Z"/>
    <path class="cls-2" d="M36.13,28.47c-1.54-.84-3.48-1.09-5.46-.72.08-.3.11-.47.11-.47l-4.49-2.26-5.85.04s-.99.3-.33,1.04c.55.61,3.51,2.21,7.11,3.1,0,0-1.12,10.48-12,10.85-.62.03-1.28.01-1.98-.03h0s-1.96,2.83-2.21,9.19c-.01.42-.02.87-.02,1.33,0,0-.02.13-.16.29-.34.42-1.46,1.08-5.03.47.47.28.97.56,1.5.83,3.56,1.79,6.89,2.38,7.43,1.3.3-.6-.32-1.58-1.55-2.65,0,0-.78-4.38,1.71-9.94,1.73.69,3.5.79,6.12-.41,0,.23.04.46.12.69.13.42.52.69.93.69.1,0,.2-.01.29-.05.52-.16.81-.7.64-1.22-.05-.15-.04-.26.03-.39.26-.47,1.17-.92,1.93-1.12.87-.23,1.69-.27,2.31-.11,2.46.62,5.65,1.13,8.57-.46,1.4-.76,2.45-1.91,2.97-3.24.96-2.47-.2-5.36-2.69-6.73ZM37,34.49c-.36.9-1.09,1.69-2.08,2.24-2.31,1.25-4.92.84-7.16.28-.57-.15-1.16-.18-1.7-.14,2.01-2.22,3.25-4.97,3.96-6.96.03,0,.05,0,.08-.02,1.86-.56,3.72-.45,5.09.3,1.39.76,2.5,2.53,1.81,4.31Z"/>
  </g>
</svg>