<?xml version="1.0" encoding="UTF-8"?>
<svg id="Capa_1" data-name="Capa 1" xmlns="http://www.w3.org/2000/svg" viewBox="0 0 93.46 101.17">
  <defs>
    <style>
      .cls-1 {
        opacity: .2;
      }

      .cls-1, .cls-2, .cls-3, .cls-4, .cls-5, .cls-6, .cls-7, .cls-8, .cls-9, .cls-10 {
        stroke-width: 0px;
      }

      .cls-1, .cls-5, .cls-6, .cls-8 {
        fill: #ae312f;
      }

      .cls-11 {
        fill: none;
        stroke: #fff;
        stroke-miterlimit: 10;
      }

      .cls-2 {
        fill: #ff9c3d;
      }

      .cls-3 {
        fill: #6ce0c0;
      }

      .cls-4 {
        fill: #ea4949;
      }

      .cls-4, .cls-12, .cls-8 {
        opacity: .48;
      }

      .cls-6 {
        opacity: .21;
      }

      .cls-7 {
        fill: #fff;
      }

      .cls-9 {
        fill: #9befe6;
      }

      .cls-10 {
        fill: #f55;
      }
    </style>
  </defs>
  <path class="cls-9" d="M59.87,26.47c-.53-.22-1.07-.43-1.62-.62-9.31-3.26-19.58-1.92-28.75,1.13-6.13,2.04-12.08,4.82-17.14,8.83C1.21,44.66-3.43,60.21,2.77,73.34c8.67,18.38,33.43,23.25,51.82,21.07,8.43-1,16-5.53,20.99-12.41,13.12-18.11,5.02-46.97-15.71-55.53Z"/>
  <path class="cls-10" d="M65.03,80.83c-1.33-.89-2.7-1.73-4.01-2.64-.24-.17-.45-.6-.43-.88.16-1.85.43-3.68.57-5.53.04-.54.16-.82.68-1.03,1.81-.72,3.6-1.49,5.4-2.25.29-.12.58-.26,1.08-.48-.88-2.76-1.75-5.49-2.64-8.29-2.32.48-4.43.88-6.53,1.36-.74.17-1.14.09-1.62-.59-.98-1.39-2.16-2.65-3.22-4-.16-.21-.23-.62-.14-.87.7-1.85,1.4-3.7,2.21-5.51.39-.87.19-1.33-.59-1.72-.3-.15-.54-.41-.81-.62-1.34-.71-2.68-1.42-4.02-2.12-.17-.03-.35-.04-.5-.1-1.63-.65-1.32-.64-2.23.72-1.11,1.66-2.2,3.34-3.16,4.8-2.49-.22-4.83-.42-7.23-.63-.93-2.2-1.89-4.51-2.87-6.83-2.93.41-5.63,1.36-8.27,2.63.47,2.28.93,4.5,1.4,6.72.08.4.06.64-.33.94-1.52,1.16-3.02,2.35-4.46,3.61-.42.36-.68.37-1.13.18-1.86-.77-3.73-1.49-5.59-2.25-.46-.19-.76-.17-1.1.28-1.52,2.03-2.55,4.3-3.39,6.67-.17.47.06.67.42.9,1.64,1.05,3.26,2.14,4.91,3.18.48.3.62.56.53,1.17-.31,2.12-.5,4.25-.76,6.55-2,.84-4.28,1.8-6.55,2.75.41,2.99,1.23,5.75,2.57,8.38,2.48-.53,4.9-1.04,7.09-1.51,1.38,1.57,2.62,3.06,3.96,4.46.5.53.6.93.31,1.59-.77,1.76-1.47,3.55-2.18,5.34-.14.35-.42.76.13,1.05,2.24,1.16,4.48,2.33,6.73,3.5.48.25.78.09,1.06-.36,1.06-1.67,2.19-3.3,3.22-4.99.4-.65.83-.68,1.5-.59,1.66.21,3.34.39,5.02.42.72.01.99.2,1.24.84.8,2.06,1.68,4.09,2.5,6.08,1.79-.01,6.65-1.57,8.4-2.68-.47-2.19-.93-4.42-1.45-6.62-.13-.55.03-.79.45-1.13,1.36-1.08,2.64-2.26,3.99-3.36.23-.18.69-.29.95-.19,1.66.64,3.29,1.33,4.93,2.02.91.39,1.28.55,1.63.31l3.77-7.13c0-.58-.39-.85-1.47-1.57ZM43.76,74.7c-1.3,2.46-4.36,3.4-6.82,2.1h0c-2.46-1.3-3.4-4.36-2.1-6.82h0c1.3-2.46,4.36-3.4,6.82-2.1h0c2.46,1.32,3.39,4.4,2.1,6.82h0Z"/>
  <path class="cls-3" d="M92.06,80.1c-.56-.38-1.14-.73-1.7-1.12-.1-.07-.19-.25-.18-.37.07-.78.18-1.56.24-2.34.02-.23.07-.35.29-.43.77-.31,1.53-.63,2.29-.95.12-.05.25-.11.46-.2-.37-1.17-.74-2.33-1.12-3.51-.98.2-1.88.37-2.76.58-.31.07-.48.04-.69-.25-.42-.59-.91-1.12-1.36-1.69-.07-.09-.1-.26-.06-.37.3-.78.59-1.57.94-2.33.16-.37.08-.56-.25-.73-.13-.06-.23-.17-.34-.26-.57-.3-1.13-.6-1.7-.9-.07-.01-.15-.02-.21-.04-.69-.28-.56-.27-.95.31-.47.7-.93,1.42-1.34,2.03-1.06-.09-2.04-.18-3.06-.27-.39-.93-.8-1.91-1.21-2.89-1.24.18-2.38.57-3.5,1.11.2.97.39,1.91.59,2.85.04.17.03.27-.14.4-.64.49-1.28,1-1.89,1.53-.18.15-.29.15-.48.08-.79-.32-1.58-.63-2.37-.95-.2-.08-.32-.07-.47.12-.64.86-1.08,1.82-1.43,2.82-.07.2.03.28.18.38.7.45,1.38.91,2.08,1.35.2.13.26.24.22.5-.13.9-.21,1.8-.32,2.77-.85.36-1.81.76-2.77,1.16.17,1.27.52,2.44,1.09,3.55,1.05-.22,2.08-.44,3-.64.58.66,1.11,1.29,1.67,1.89.21.22.25.39.13.67-.33.75-.62,1.5-.92,2.26-.06.15-.18.32.06.44.95.49,1.9.99,2.85,1.48.2.1.33.04.45-.15.45-.71.93-1.4,1.36-2.11.17-.28.35-.29.64-.25.7.09,1.42.17,2.13.18.31,0,.42.08.52.36.34.87.71,1.73,1.06,2.57.76,0,2.82-.67,3.56-1.13-.2-.93-.39-1.87-.61-2.8-.05-.23.01-.34.19-.48.58-.46,1.12-.96,1.69-1.42.1-.08.29-.12.4-.08.7.27,1.39.56,2.09.86.39.16.54.23.69.13l1.6-3.02c0-.24-.17-.36-.62-.66ZM86.05,79.09c-1.43,2.7-4.77,3.73-7.47,2.3h0c-2.7-1.43-3.73-4.77-2.3-7.47h0c1.43-2.7,4.77-3.73,7.47-2.3h0c2.7,1.43,3.73,4.77,2.3,7.47h0Z"/>
  <g>
    <g>
      <path class="cls-2" d="M58.67,62.49s1.03,1.62,2.38,5.2c1.35,3.58,3.6,5.96,5.68,6.38s1.48-1.27.43-6.52c-1.05-5.26-1.43-15.22-1.73-14.99-.31.23-2.1-.3-2.71.1-.61.4-3.03,7.12-3.03,7.12l-1.02,2.72Z"/>
      <path class="cls-1" d="M58.67,62.49s1.03,1.62,2.38,5.2c1.35,3.58,3.6,5.96,5.68,6.38s1.48-1.27.43-6.52c-1.05-5.26-1.43-15.22-1.73-14.99-.31.23-2.1-.3-2.71.1-.61.4-3.03,7.12-3.03,7.12l-1.02,2.72Z"/>
      <g>
        <g>
          <path class="cls-2" d="M21.8,22.86c-1.2,4.43-3.23,2.02-3.23,2.02-2.66-1.59-4.83-2.98-6.16-4.95-.58-.86-.96-1.68-1.23-2.49-.61-1.85-.59-3.59-.86-5.38-.17-1.18-.47-2.38-1.15-3.65-.68-1.26-1.71-2.59-2.66-3.79-1.08-1.37-2.04-2.56-2.25-3.28-.21-.75-.02-1.48,1.22-1.31.35.05.68.13,1.01.26h0c1.99.76,3.58,2.9,4.71,5.56.35.82.66,1.68.92,2.57.21.72.39,1.48.53,2.22.43,2.25.63,4.48,1.05,5.95.29,1.03.86,1.91,1.56,2.66.84.9,1.89,1.61,2.89,2.16,1.9,1.03,3.65,1.46,3.65,1.46Z"/>
          <path class="cls-1" d="M21.8,22.86c-1.2,4.43-3.23,2.02-3.23,2.02-2.66-1.59-4.83-2.98-6.16-4.95-.58-.86-.96-1.68-1.23-2.49-.61-1.85-.59-3.59-.86-5.38-.17-1.18-.47-2.38-1.15-3.65-.68-1.26-1.71-2.59-2.66-3.79-1.08-1.37-2.04-2.56-2.25-3.28-.21-.75-.02-1.48,1.22-1.31.35.05.68.13,1.01.26h0c1.99.76,3.58,2.9,4.71,5.56.35.82.66,1.68.92,2.57.21.72.39,1.48.53,2.22.43,2.25.63,4.48,1.05,5.95.29,1.03.86,1.91,1.56,2.66.84.9,1.89,1.61,2.89,2.16,1.9,1.03,3.65,1.46,3.65,1.46Z"/>
        </g>
        <path class="cls-5" d="M6.5,4.62c-1.08-1.37-2.04-2.56-2.25-3.28-.21-.75-.02-1.48,1.22-1.31.35.05.68.13,1.01.26h0c.35.52.67,1.12.85,1.78.35,1.24-.25,2.08-.83,2.56Z"/>
        <path class="cls-5" d="M12.65,10.64c-.53-.27-1.1-.81-1.48-1.88-.43-1.23-.26-2.23.02-2.92.35.82.66,1.68.92,2.57.21.72.39,1.48.53,2.22Z"/>
        <path class="cls-5" d="M11.18,17.44c-.61-1.85-.59-3.59-.86-5.38,0,0,2.59,2.21.86,5.38Z"/>
        <path class="cls-5" d="M18.15,21.4c-.62.5-1.38.9-1.92.51-.75-.54-.93-1.89-.97-2.67.84.9,1.89,1.61,2.89,2.16Z"/>
      </g>
      <path class="cls-2" d="M65.04,54.01c-.64,7.7-7.16,9.31-7.16,9.31,0,0,.46,4.87-1.75,4.87s-3.69-3.15-3.69-3.15c0,0-1.48,0-3.29-.73-1.05-.42-2.21-1.08-3.26-2.13l-.03-.03c-.54-.55-.97-1.29-1.3-2.11-.38-.96-.64-2.03-.81-3.05-.38-2.3-.32-4.35-.32-4.35-8.31-.51-12.02-5.89-12.02-5.89-1.97.07-3.8-.21-3.8-.21,1.96,2.04,4.58,8.48,3.04,8.62-1.55.13-2.32-2.45-3.3-4.09-.98-1.64-5.75-3.49-6.52-5.54-.77-2.05,2.59-3.83,2.59-3.83-1.48-1.34-2.69-3.08-3.54-4.96-.41-.92-.75-1.88-.98-2.85-.19-.78-.32-1.56-.39-2.34-.03-.39-.04-.78-.03-1.17.02-.97.17-1.94.43-2.89.44-1.62,1.19-3.17,2.18-4.53.54-.75,1.15-1.44,1.81-2.05.23-.22.47-.42.71-.62,1.28-1.03,2.7-1.77,4.19-2.27,1.43-.47,2.93-.73,4.45-.82,2.42-.14,4.9.16,7.25.7.14.03.28.07.43.1,1.06.26,2.16.57,3.29.96,1.03.35,2.07.75,3.12,1.22,1.04.46,2.1.99,3.13,1.6,1.22.71,2.42,1.51,3.58,2.43.1.07.19.15.29.23,1.07.88,2.1,1.85,3.06,2.93.22.24.42.48.63.73.77.92,1.49,1.92,2.15,3,.49.81.96,1.67,1.38,2.57.86,1.83,1.56,3.85,2.07,6.09.21.92,2.99,7.36,2.42,14.23Z"/>
      <g>
        <path class="cls-2" d="M68.3,42.5s0,0,0,0c2.18-1.63,1.96-6.39,1.34-7.18-.05-.07-.11-.1-.16-.11-1.14-.11-2.2.19-3.1.9-.75.6-1.4,1.36-2.29,1.75-.48.21-1,.39-1.51.51h0c-.14-.05-.28-.09-.42-.13-.31-.09-.6-.15-.89-.21-.34-.06-.71-.14-1.11-.22-.23-.05-.47-.1-.73-.15-1.13-.23-2.47-.47-3.97-.61-.35-.03-.71-.06-1.08-.08-.87-.05-1.8-.06-2.76,0-.37.02-.74.05-1.12.09,0,0,0,0,0,0,0,0-1.4-.85-2.14-2.12-.72-1.25-1.98-2.37-3.57-2.23-.03,0-.07,0-.1,0-1.51.18-1.55,4.3-.98,6.09-.05.02-.1.04-.15.06,0,0-1.29.59-2.35,2.21-.24.37-.47.79-.66,1.27-.13.32-.25.67-.35,1.05-.1.37-.18.77-.23,1.2-.11.82-.12,1.74-.02,2.78,0,.09.02.19.03.28.06.52.16,1.01.29,1.48.23.85.56,1.63.98,2.34,1.68,2.82,4.8,4.53,8.72,5.49,1.65.41,3.45.67,5.34.84,5.98.51,10.58-.2,12.96-3.57.33-.47.62-.98.86-1.56.06-.14.12-.29.17-.45.28-.76.48-1.61.61-2.56v-.08c.03-.17.05-.33.07-.5.05-.62.06-1.2.02-1.76-.13-1.92-.77-3.52-1.69-4.83Z"/>
        <path class="cls-5" d="M68.31,42.5c-1.72,1.28-3.72-.32-4.65-1.88-.1-.17-.19-.33-.26-.49-.17-.38-.35-.76-.53-1.13-.07-.16-.15-.49-.28-.61.12.1,2.24,2.01,3.95,1.75,1.2-.18,1.54-2.11,2.14-3.5.25-.58.55-1.07.97-1.3.62.78.84,5.54-1.34,7.18Z"/>
        <path class="cls-5" d="M58.23,43.96c-.94-.12-1.02-1.48-1.44-3.63-.32-1.68-1.04-2.83-1.33-3.26,1.5.14,2.84.38,3.97.61,1.14,2.55-.3,6.39-1.2,6.28Z"/>
        <path class="cls-5" d="M60.67,39.58c-.3-.71-.44-1.39-.5-1.75.4.08.77.15,1.11.22.29.05.58.12.89.21.16,1.28-1.18,2.09-1.5,1.33Z"/>
        <path class="cls-5" d="M54,39.78c-.64.03-1.16-.46-1.53-1.53-.2-.6-.57-1.02-.85-1.26.97-.05,1.89-.05,2.76,0,.78,1.38.2,2.76-.38,2.79Z"/>
        <path class="cls-5" d="M47.94,39.3c-.6.24-1.24.41-1.83.49-1.07.14-1.98-.02-2.24-.57-.72-1.47-.8-6.3.83-6.49.03,0,.07,0,.1,0,.24.1.58.27.92.57.44.38.89.96,1.12,1.83.48,1.82-.04,2.88,1.1,4.19Z"/>
        <path class="cls-7" d="M66.49,41.4c-1.28.08-1.71-.97-1.73-1.05,0,.05.05.56-.35.42-.42-.14-.3-.77-.3-.77,0,0-.12.44-.45.62-.1-.17-.19-.33-.26-.49-.17-.38-.35-.76-.53-1.13-.07-.16-.15-.49-.28-.61.12.1,2.24,2.01,3.95,1.75,1.2-.18,1.54-2.11,2.14-3.5-.02.94-.79,3.03-.79,3.03,0,0,.48-.49.74-.33.24.15-.43.79-.49.85.05-.02.64-.25.71.09.07.35-1.02,1.05-2.35,1.13Z"/>
        <path class="cls-7" d="M47.94,39.3c-.6.24-1.24.41-1.83.49-.43-.08-.78-.25-.85-.56-.21-.91.58-1.03.58-1.03,0,0-.41-.3-.46-.55-.05-.23.47.15.52.19-.04-.06-.44-.6-.32-.74.1-.11.26.1.34.2-.12-.21-.53-1,.06-1.45,0,0-1.67-2.12-.27-2.55.44.38.89.96,1.12,1.83.48,1.82-.04,2.88,1.1,4.19Z"/>
        <g>
          <g>
            <path class="cls-7" d="M65.28,54.62c-.98.15-2.22-.24-2.9-.97-.15-.16-.27-.33-.36-.53-.38-.85-.29-1.98.11-2.82,0-.02.02-.04.03-.06.42-.84,1.27-1.37,2.2-1.42,1.09-.06,2.45.4,2.92,1.46.19.42.25.91.22,1.41h0c-.09,1.33-.91,2.72-2.23,2.92Z"/>
            <path class="cls-5" d="M65.28,54.62c-.55.08-1.12,0-1.66-.17-.27-.09-.52-.21-.76-.36-.24-.15-.47-.33-.65-.55-.19-.22-.32-.49-.4-.76-.09-.28-.13-.56-.14-.85-.02-.58.08-1.16.32-1.7h0c.29-.64.81-1.14,1.45-1.4.32-.13.66-.21,1.01-.21.34,0,.68.03,1,.11.65.16,1.29.49,1.7,1.05.21.28.33.6.4.93.07.33.07.66.04.99l-.05-.08h0s.06.02.06.02v.06c-.07.67-.32,1.31-.7,1.86-.19.27-.43.51-.7.7-.27.19-.59.32-.91.36ZM65.28,54.62c.33-.05.64-.18.91-.37.27-.19.49-.44.67-.71.36-.55.55-1.2.57-1.84l.05.08h0s-.05-.02-.05-.02v-.06c.01-.31-.02-.63-.1-.93-.08-.3-.21-.58-.41-.81-.39-.46-.97-.73-1.56-.86-.6-.13-1.23-.13-1.78.09-.28.11-.53.27-.76.47-.11.1-.21.21-.3.33-.05.06-.09.12-.13.18-.03.06-.08.14-.1.19h0c-.24.48-.38,1.02-.39,1.56,0,.27.02.54.08.81.06.26.17.52.33.74.32.44.81.75,1.33.95.52.2,1.09.28,1.65.2Z"/>
          </g>
          <path class="cls-5" d="M63.64,53.6c.65.37,1.52.4,2.16-.01,1.02-.66,1.29-2.21.54-3.16-.4-.51-1.09-.85-1.74-.84-1.75.04-2.51,2.38-1.44,3.63.13.15.29.28.48.38Z"/>
          <path class="cls-6" d="M67.51,51.7c-2.48-2.62-5.05-1.54-5.37-1.4,0-.02.02-.04.03-.06.42-.84,1.27-1.37,2.2-1.42,1.09-.06,2.45.4,2.92,1.46.19.42.25.91.22,1.41Z"/>
        </g>
        <g>
          <g>
            <path class="cls-7" d="M52.38,54.32c-1.06.35-2.51.15-3.4-.53-.19-.15-.36-.32-.49-.52-.59-.87-.7-2.14-.41-3.15,0-.02.01-.05.02-.07.31-1.01,1.15-1.76,2.18-1.99,1.2-.27,2.79-.02,3.52,1.07.28.43.45.96.51,1.52h0c.15,1.49-.5,3.19-1.92,3.66Z"/>
            <path class="cls-5" d="M52.38,54.32c-.6.2-1.25.21-1.87.12-.31-.05-.62-.13-.91-.25-.29-.12-.58-.28-.82-.49-.25-.21-.44-.48-.58-.77-.15-.29-.25-.6-.31-.91-.13-.63-.12-1.3.04-1.93h0c.19-.75.68-1.4,1.34-1.81.33-.2.69-.35,1.07-.42.37-.07.75-.09,1.13-.07.75.05,1.51.3,2.07.83.28.26.48.6.62.95.14.35.21.72.24,1.08l-.06-.07h0s.06.01.06.01v.06c.06.75-.09,1.51-.41,2.19-.16.34-.38.64-.64.9-.27.26-.59.46-.94.57ZM52.38,54.32c.35-.12.67-.32.93-.58.26-.26.46-.58.61-.91.3-.67.38-1.43.29-2.15l.06.07h0s-.05,0-.05,0v-.06c-.05-.35-.14-.7-.29-1.01-.14-.32-.34-.61-.6-.82-.52-.44-1.22-.64-1.91-.67-.69-.03-1.39.09-1.97.44-.29.17-.54.4-.76.67-.1.13-.2.27-.28.43-.04.07-.07.15-.11.23-.03.08-.06.17-.08.23h0c-.18.59-.22,1.21-.13,1.82.05.3.13.6.25.88.12.28.29.54.51.76.45.43,1.05.68,1.66.8.61.12,1.26.1,1.86-.09Z"/>
          </g>
          <path class="cls-5" d="M50.36,53.5c.79.29,1.77.16,2.4-.42,1-.93,1.02-2.7,0-3.61-.54-.49-1.37-.74-2.09-.6-1.93.37-2.34,3.11-.91,4.3.18.15.38.26.6.34Z"/>
          <path class="cls-6" d="M54.3,50.66c-3.25-2.43-5.89-.76-6.22-.54,0-.02.01-.05.02-.07.31-1.01,1.15-1.76,2.18-1.99,1.2-.27,2.79-.02,3.52,1.07.28.43.45.96.51,1.52Z"/>
        </g>
        <g>
          <path class="cls-5" d="M58.64,52.92s-.52-.94-.82-.86c-.31.08-.16.97.71,1.46,0,0,1.41-.79.98-1.17-.28-.24-.87.56-.87.56Z"/>
          <path class="cls-8" d="M56.6,53.51c-.53.12-1.03.45-1.33.95-.44.74-.52,1.66.04,2.33.35.41.84.64,1.33.78.94.26,1.9.46,2.86.19.35-.1.69-.25.98-.5.44-.39.7-1.01.7-1.64,0-.62-.28-1.23-.72-1.6-.54-.45-1.35-.59-2.02-.58-.59,0-1.26-.06-1.83.08Z"/>
        </g>
        <path class="cls-4" d="M62.89,54.9c-.53.42-.56,1.21.1,1.56.89.47,2.49.27,3.2-.45.6-.61.14-1.62-.57-1.76-.6-.12-1.22-.02-1.79.18-.26.09-.65.24-.95.47Z"/>
        <path class="cls-4" d="M48.86,54.54c-.62.2-.92.9-.44,1.45.64.73,2.16,1.09,3.05.68.75-.35.68-1.42.08-1.78-.5-.31-1.1-.43-1.67-.45-.27,0-.67,0-1.02.1Z"/>
        <path class="cls-5" d="M69.97,49.1c-.2-.01-.4-.05-.59-.11-.25-.08-.5-.23-.57-.48-.06-.21.03-.45.18-.61.15-.16.35-.27.56-.36.15-.07.3-.14.45-.2.04.56.03,1.15-.02,1.76Z"/>
        <path class="cls-5" d="M69.91,49.67c-.13.95-.33,1.8-.61,2.56-.2-.08-.4-.17-.58-.28-.37-.22-.76-.59-.69-1.02.06-.35.4-.59.72-.75.34-.17.75-.37,1.16-.51Z"/>
        <g>
          <path class="cls-5" d="M64.81,55.37c.57.13,1.13.31,1.68.5.55.2,1.09.42,1.61.69-.57-.13-1.13-.31-1.68-.5-.55-.2-1.09-.42-1.61-.69Z"/>
          <path class="cls-5" d="M68.55,55.18c-.57.02-1.13-.02-1.69-.08-.56-.06-1.12-.14-1.67-.28.57-.02,1.13.02,1.69.08.56.06,1.12.14,1.67.28Z"/>
          <path class="cls-5" d="M68.33,53.39c-.5.27-1.03.48-1.55.67-.53.19-1.06.37-1.62.49.5-.27,1.03-.48,1.55-.67.53-.19,1.07-.37,1.62-.49Z"/>
        </g>
        <g>
          <path class="cls-5" d="M49.97,55.74c-.57.13-1.15.2-1.73.26-.58.05-1.16.09-1.75.06.57-.13,1.15-.2,1.73-.26.58-.05,1.16-.09,1.75-.06Z"/>
          <path class="cls-5" d="M46.4,54.61c.57,0,1.13.07,1.68.15.56.09,1.11.19,1.66.35-.57,0-1.13-.07-1.68-.15-.56-.09-1.11-.19-1.66-.35Z"/>
          <path class="cls-5" d="M47.06,52.93c.51.26.98.56,1.45.88.46.32.92.66,1.33,1.04-.51-.26-.98-.56-1.45-.88-.46-.32-.91-.66-1.33-1.04Z"/>
        </g>
        <path class="cls-5" d="M43.31,51.53c-.18.1-.4.12-.6.13-.49.02-.98-.05-1.46-.18-.42-.71-.75-1.48-.98-2.34.5.33,1.06.58,1.65.73.32.08.65.13.95.25.31.12.59.32.74.62.04.09.07.2.06.31-.01.21-.17.39-.35.48Z"/>
        <path class="cls-5" d="M44.3,48.36c-.76.69-1.97.09-2.75-.23-.55-.22-1.09-.48-1.61-.75-.11-1.04-.09-1.96.02-2.78,1.48.68,3.65,1.79,3.95,1.95.25.14.49.32.63.56.24.4.09.94-.24,1.24Z"/>
        <path class="cls-5" d="M43.67,44.87c-1.01-.11-1.91-.55-2.78-1.04-.24-.13-.47-.27-.69-.42.1-.38.22-.73.35-1.05.2-.48.43-.9.66-1.27.27.24.54.49.82.73.74.65,1.59,1.17,2.3,1.84.13.12.25.25.32.41.26.62-.52.86-.98.81Z"/>
        <path class="cls-5" d="M57.13,57.7l.69-2.09c.11-.35.23-.7.33-1.05.11-.35.21-.7.29-1.05l.07-.34.12.33c.24.68.41,1.37.51,2.08.05.35.08.71.1,1.06,0,.36,0,.71-.05,1.06,0-.35,0-.71-.04-1.06-.03-.35-.08-.7-.15-1.04-.07-.34-.14-.69-.24-1.03-.09-.34-.19-.68-.31-1h.19c-.08.35-.19.7-.3,1.06-.12.35-.23.7-.37,1.04-.13.34-.26.69-.4,1.03-.14.34-.28.68-.44,1.01Z"/>
      </g>
      <g class="cls-12">
        <path class="cls-5" d="M34.06,30.84c.57-.21,1.52-.6,1.9.11.05.26-.15.39-.26.46-.25.16-.5.24-.76.32l-.08-.42c.52-.19,2.03-.35,1.61.66-.26.36-.58.48-.95.65-.08.03-.2.02-.28-.02l.32-.67c1.85.99,2.21,3.1,2.59,4.91.67,3.59-.75,8.01-4.34,9.49-1.73.75-3.64.69-5.37.3,5.99.63,9.64-3.91,8.75-9.64-.27-1.5-.61-3.53-1.93-4.38,0,0,.31-.67.31-.67-.07-.04-.18-.05-.26-.02.07-.02.37-.12.49-.19.07-.04.14-.09.15-.09,0,0-.02.05,0,.1,0,.04.05.07.05.06-.2-.11-.76-.07-1.04-.05,0,0-.08-.42-.08-.42.23-.03.48-.09.67-.18.1-.05.16-.11.15-.12-.31-.46-1.13-.25-1.62-.17h0Z"/>
      </g>
      <path class="cls-5" d="M51.21,58.84c5.8-2.58,8.15,3.04,6.91,7.92-.62,2.68-3.29,2.05-4.6.33-.54-.73-.94-1.52-1.23-2.35.94,1.44,2.29,3.32,4.19,2.99.1-.03.2-.1.3-.22.97-1.7.73-4.04.3-5.89-.54-2.71-3.37-3.38-5.87-2.78h0Z"/>
      <path class="cls-5" d="M28.91,53.96c.13-1.09.27-1.25.93-2.12.86.73.17,2.19-.93,2.12h0Z"/>
      <path class="cls-5" d="M55.56,67.99c-.03-1.29,0-2.11.34-3.3,1.06.83.89,2.74-.34,3.3h0Z"/>
      <path class="cls-5" d="M60.55,33.69c-.45-.02-.9-.08-1.35-.14-2.32-.27-4.68-.19-6.97.23-1.48.27-2.98.69-4.46.43-.38-.06-.81-.22-.95-.58-.11-.31.03-.66.27-.89.24-.22.55-.34.86-.45,2.48-.86,5.11-1.29,7.73-1.29.98,0,2.28-.05,3.49.11.49.81.96,1.67,1.38,2.57Z"/>
      <path class="cls-5" d="M56.39,27.38c-.16,0-.32.02-.48.03-1.58.14-3.02.76-4.5,1.24-1.12.36-2.93.99-3.89,0-.3-.3-.28-.65-.14-1.01.54-1.32,2.01-2.15,3.47-2.73.72-.28,1.45-.51,2.19-.7.1.07.19.15.29.23,1.07.88,2.1,1.85,3.07,2.93Z"/>
      <path class="cls-5" d="M49.46,21.78c-.48.34-1.02.57-1.54.84-.82.41-1.59.9-2.31,1.46-.37.29-.74.61-1.17.8-.32.14-.71.21-1.01.03-.31-.18-.45-.58-.41-.94.04-.36.22-.69.42-.99.76-1.17,1.75-2.03,2.88-2.79,1.05.47,2.1.99,3.13,1.6Z"/>
      <path class="cls-5" d="M43.2,18.96c-.57.44-1.1.93-1.58,1.47-.86.96-1.63,2.11-2.84,2.58-.38.15-.83.21-1.16-.02-.4-.28-.44-.85-.37-1.33.22-1.48,1.14-2.72,2.24-3.76.14.03.28.07.43.1,1.05.26,2.16.57,3.29.96Z"/>
      <path class="cls-5" d="M23.03,34.64c-.61.41-1.22.83-1.82,1.24-.43.29-.88.58-1.33.85-.41-.92-.75-1.88-.98-2.85,1.06-.41,2.15-.74,3.19-1.03.33-.09.68-.18,1.02-.13.34.05.68.27.77.6.15.54-.37,1-.83,1.31Z"/>
      <path class="cls-5" d="M24.22,28.4c-.05.28-.3.49-.55.63-.87.52-1.9.72-2.9.91-.77.14-1.53.29-2.3.43.02-.97.17-1.94.43-2.89,1.33-.15,2.66-.17,3.99-.06.31.02.63.06.9.21.27.15.48.46.43.77Z"/>
      <path class="cls-5" d="M27.13,24.88c-.32.35-.88.38-1.35.29-1.28-.25-2.33-1.14-3.49-1.74-.41-.21-.81-.36-1.22-.47.54-.75,1.15-1.44,1.81-2.05.23-.22.47-.42.71-.62.54.22,1.06.51,1.56.84.94.61,1.86,1.41,2.16,2.49.12.43.12.94-.18,1.27Z"/>
      <path class="cls-5" d="M32.92,20.74c-.25.59-.8,1.07-1.44,1.11-.64.04-1.24-.36-1.65-.86-.41-.5-.67-1.09-1.01-1.64-.29-.48-.64-.92-1.04-1.33,1.43-.47,2.93-.73,4.45-.82.35.5.61,1.06.76,1.65.15.62.17,1.29-.08,1.88Z"/>
    </g>
    <path class="cls-5" d="M66.12,73.3c.13-1.17.08-1.78.49-2.82,1.03.69.8,2.62-.49,2.82h0Z"/>
  </g>
  <path class="cls-5" d="M51.82,61.47c-.43.82-1.43,1.45-2.06,2.12-.21.22-.41.47-.62.71-1.05-.42-2.21-1.08-3.26-2.13.21-.26.45-.49.7-.69,1.17-.95,2.69-1.47,4.19-1.43.36,0,.76.07.99.34.25.29.22.74.04,1.08Z"/>
  <path class="cls-5" d="M46.35,58.73c-.34.38-1.03.91-1.8,1.3-.38-.96-.64-2.03-.81-3.05.58-.16,1.19-.21,1.79-.14.51.06,1.1.29,1.22.79.1.39-.13.79-.4,1.09Z"/>
  <path class="cls-7" d="M12.62,53.5c-.21-.05-.42-.09-.63-.14-.04,0-.08-.05-.1-.09-.07-.24-.12-.48-.19-.72-.02-.07-.02-.11.04-.16.19-.18.38-.36.57-.53.03-.03.06-.06.11-.11-.24-.31-.48-.61-.72-.92-.27.17-.52.32-.76.48-.08.06-.14.06-.23,0-.19-.13-.4-.23-.59-.35-.03-.02-.06-.07-.06-.1,0-.27,0-.53.02-.8,0-.13-.04-.18-.15-.19-.04,0-.09-.03-.13-.04-.2-.03-.4-.05-.6-.08-.02,0-.05.01-.07.01-.24,0-.2-.02-.25.19-.06.26-.12.52-.17.75-.32.09-.63.17-.94.26-.22-.23-.45-.48-.68-.72-.35.19-.64.43-.92.72.17.26.33.52.49.78.03.05.04.08,0,.13-.14.22-.27.44-.39.66-.04.06-.07.08-.13.08-.27,0-.54-.01-.81-.02-.07,0-.1.01-.13.09-.1.33-.12.66-.11,1,0,.07.04.08.09.09.26.06.51.12.77.17.07.02.1.04.12.12.06.28.13.56.21.86-.21.2-.45.43-.7.65.19.36.42.67.71.93.29-.18.57-.36.82-.52.25.13.47.26.71.38.09.04.12.09.11.19-.01.26-.02.52-.02.77,0,.05-.02.12.07.13.34.04.67.08,1.01.13.07,0,.1-.03.12-.1.06-.26.12-.52.17-.78.02-.1.07-.12.16-.14.22-.05.44-.11.65-.18.09-.03.13-.02.19.05.2.22.4.44.6.65.22-.09.76-.51.93-.73-.16-.25-.32-.51-.49-.77-.04-.06-.03-.1,0-.16.12-.2.23-.41.34-.61.02-.03.07-.07.11-.07.24,0,.48.01.71.02.13,0,.19,0,.22-.04l.14-1.07c-.03-.07-.09-.09-.26-.13ZM10.73,53.86c-.13.96-1.01,1.63-1.96,1.51h0c-.96-.13-1.63-1.01-1.5-1.96h0c.13-.96,1.01-1.63,1.96-1.51h0c.96.13,1.63,1.01,1.51,1.96h0Z"/>
  <path class="cls-11" d="M16.26,42.76c-.2.08-.4.16-.6.23-.04.01-.1,0-.13-.02-.19-.16-.37-.33-.56-.49-.06-.05-.08-.08-.06-.15.06-.25.12-.5.18-.76,0-.04.02-.08.03-.15-.37-.12-.73-.23-1.11-.35-.13.29-.25.55-.36.81-.04.09-.08.13-.19.13-.23,0-.46.03-.69.04-.04,0-.09-.02-.11-.05-.15-.22-.29-.44-.42-.66-.06-.11-.13-.12-.23-.07-.04.02-.09.03-.13.04-.18.09-.36.18-.55.27-.02.02-.03.03-.05.05-.2.13-.17.09-.1.3.09.25.19.49.27.71-.22.25-.42.49-.64.73-.31-.07-.64-.14-.97-.21-.19.35-.29.71-.36,1.09.28.12.56.24.84.36.05.02.07.04.08.11,0,.25.02.51.04.76,0,.07-.01.1-.07.14-.23.14-.45.29-.68.43-.06.04-.08.07-.06.14.1.32.27.6.46.88.04.05.08.04.13.02.24-.1.49-.19.73-.29.07-.03.11-.02.17.03.21.2.42.38.65.58-.07.28-.14.6-.22.92.36.18.72.31,1.11.36.14-.31.27-.61.39-.88.28-.03.54-.05.79-.09.1-.01.15,0,.2.09.13.22.27.43.41.64.03.04.05.1.12.07.3-.15.6-.31.91-.46.06-.03.07-.08.04-.14-.1-.24-.19-.49-.29-.73-.04-.09,0-.14.05-.21.15-.16.3-.33.44-.51.06-.08.1-.09.19-.07.29.07.57.13.86.2.14-.19.35-.84.37-1.11-.28-.12-.55-.24-.83-.35-.07-.03-.08-.06-.09-.14-.01-.23-.04-.46-.05-.69,0-.04.02-.1.05-.12.2-.13.4-.25.61-.38.11-.07.16-.1.16-.15l-.48-.95c-.06-.04-.12-.02-.29.04ZM14.37,44.36c.29.57.05,1.27-.53,1.56h0c-.58.29-1.29.06-1.57-.51h0c-.29-.57-.05-1.27.53-1.56h0c.58-.29,1.29-.06,1.57.51h0Z"/>
</svg>