<?xml version="1.0" encoding="UTF-8"?>
<svg id="Capa_1" data-name="Capa 1" xmlns="http://www.w3.org/2000/svg" viewBox="0 0 99.86 100.77">
  <defs>
    <style>
      .cls-1 {
        opacity: .39;
      }

      .cls-1, .cls-2, .cls-3, .cls-4, .cls-5, .cls-6, .cls-7, .cls-8, .cls-9, .cls-10, .cls-11, .cls-12 {
        stroke-width: 0px;
      }

      .cls-1, .cls-8 {
        fill: #fff;
      }

      .cls-2 {
        opacity: .2;
      }

      .cls-2, .cls-6, .cls-7, .cls-9, .cls-11 {
        fill: #ae312f;
      }

      .cls-3 {
        fill: #ff9c3d;
      }

      .cls-4 {
        fill: #6ce0c0;
      }

      .cls-5 {
        fill: #ea4949;
      }

      .cls-5, .cls-13, .cls-9 {
        opacity: .48;
      }

      .cls-7 {
        opacity: .21;
      }

      .cls-10 {
        fill: #9befe6;
      }

      .cls-11 {
        opacity: .1;
      }

      .cls-14 {
        fill: none;
        stroke: #6ce0c0;
        stroke-linecap: round;
        stroke-linejoin: round;
      }

      .cls-12 {
        fill: #f55;
      }
    </style>
  </defs>
  <path class="cls-10" d="M40.86,22.41c-10.78,2.22-21.46,7.16-29.55,14.7C4.3,43.64.33,53.47.02,62.97c-.39,12.12,5.1,24.74,15.46,31.41,7.13,4.6,15.87,5.97,24.35,6.32,7.26.3,15.05-.25,20.86-4.61,5.22-3.92,6.96-9.49,7.44-15.78.18-2.35.28-4.73.96-6.99,1.57-5.24,6.11-7.32,10.26-10.15,4.26-2.91,8.3-6.46,10.44-11.26,5.96-13.41-6.15-24.54-17.96-28.37-9.82-3.18-20.92-3.21-30.96-1.14Z"/>
  <g>
    <path class="cls-6" d="M78.83,85.32s-.03,0-.04,0c-.12-.02-.19-.14-.17-.26.46-2.2,1.59-7.34,2.13-7.69.12-.08.26-.09.4-.05.55.19,1.03,1.49,1.12,1.74.04.11-.02.24-.13.28-.11.04-.24-.02-.28-.13-.23-.65-.62-1.4-.85-1.48-.33.3-1.25,4.01-1.97,7.42-.02.1-.11.17-.21.17Z"/>
    <path class="cls-6" d="M63.2,92.47s-.05,0-.07-.01c-.11-.04-.17-.16-.14-.28.68-2.01,2.94-8.58,3.57-9,.15-.1.33-.13.51-.08.6.17,1.1,1.18,1.15,1.29.05.11,0,.24-.1.29-.11.05-.24,0-.29-.1-.18-.36-.57-.98-.88-1.06-.06-.02-.11,0-.16.02-.38.31-2.04,4.75-3.4,8.77-.03.09-.11.15-.21.15Z"/>
    <g>
      <path class="cls-1" d="M78.88,85.08c.97,1.67.35,3.83-1.37,4.83-1.72.99-3.9.44-4.87-1.23-.97-1.67-.35-3.83,1.37-4.83,1.72-.99,3.9-.44,4.87,1.23Z"/>
      <path class="cls-1" d="M68.99,89.42c.97,1.67.49,3.75-1.05,4.65s-3.58.26-4.55-1.41c-.97-1.67-.49-3.75,1.05-4.65s3.58-.26,4.55,1.41Z"/>
      <path class="cls-6" d="M66.42,94.66c-1.25,0-2.51-.7-3.22-1.93-1.02-1.77-.52-3.99,1.13-4.94,1.65-.95,3.82-.28,4.84,1.49h0c1.02,1.77.52,3.99-1.13,4.94-.51.29-1.06.43-1.62.43ZM65.95,87.8c-.48,0-.97.12-1.41.37-1.44.83-1.87,2.78-.97,4.35.9,1.57,2.81,2.17,4.25,1.34,1.44-.83,1.87-2.78.97-4.35h0c-.63-1.09-1.74-1.71-2.84-1.71Z"/>
      <path class="cls-6" d="M69.21,89.64l-.33-.28c.06-.07,1.46-1.71,3.45-1.39l-.07.43c-1.75-.28-3.04,1.23-3.05,1.25Z"/>
      <path class="cls-6" d="M75.63,90.64c-.31,0-.63-.04-.94-.12-.98-.25-1.79-.86-2.28-1.72-1.02-1.77-.37-4.07,1.45-5.12,1.82-1.05,4.14-.47,5.16,1.31h0c1.02,1.77.37,4.07-1.45,5.12-.6.35-1.27.53-1.94.53ZM75.8,83.6c-.58,0-1.18.15-1.72.46-1.62.93-2.19,2.97-1.29,4.53.44.76,1.15,1.29,2.01,1.51.86.22,1.77.09,2.56-.36,1.62-.93,2.19-2.97,1.29-4.53h0c-.6-1.04-1.7-1.61-2.85-1.61Z"/>
    </g>
  </g>
  <g>
    <path class="cls-3" d="M26,85.37s3.4-1.29,6.29-5.97c2.89-4.68-8.55-11.4-8.55-11.4,0,0-5.54,6.37-7.88,10.22-2.34,3.85,10.14,7.15,10.14,7.15Z"/>
    <path class="cls-3" d="M98.32,0c-1.6.09-2.49,1.52-3.44,3.55-.76,1.61-1.55,3.6-2.77,5.59-.68,1.11-1.48,2.22-2.49,3.26-.23.23-.46.46-.71.68-5.3,4.61-15.25,5.04-20.57,9.4-.21.17-.41.35-.6.53-2.31,2.18-3.32,4.93-3.75,7.23-.25,1.36-.3,2.55-.29,3.38-11.08-3.1-18.22.12-23.34,6.11-5.19,6.07-6.87,18.39-6.87,18.39l12.59,24.8s-5.5,1.3-9.96,5.03c-3.22,2.69-5,5.62-4.34,7.7,0,.69.07,1,.33,1.41.6.93,1.57,1.12,3.3.94,1.19.62,2.66-.24,3.71-.87,3.02-1.83,6.81-5.37,16.47-9.4,9.66-4.02,14.35-16.11,14.69-19.4,0,0,4.56-1.7,7.16-9.07,0,0,.76,8.2,4.06,8.27,3.29.07-.44-3.44.07-8.27.51-4.83.29-9.44-4.32-7.46,0,0-.4-11.97-10.07-16.87.51-2.39,2.17-7.71,7.15-9.58,2.55-.95,5.21-1.94,7.82-3.1,1.85-.82,3.68-1.72,5.44-2.77,2.1-1.25,4.09-2.69,5.87-4.41,1.74-1.68,3.24-3.87,4.35-6.07C100.11,4.45,100.73-.12,98.32,0Z"/>
    <g>
      <path class="cls-12" d="M35.09,34.6l-.24,3.45s-.31.13-.78.38c-.14.07-.3.16-.47.25-.31.17-.65.37-1.01.6-.14.09-.29.19-.43.29-.54.37-1.1.8-1.59,1.27-.12.11-.24.23-.35.35-.27.29-.51.59-.7.9-.18.29-.3.6-.37.93-.04.16-.06.32-.08.49-.04.41-.03.84,0,1.3,0,.16.02.33.04.51.04.51.1,1.05.12,1.61,0,.16.01.32.02.48.01.61,0,1.24-.12,1.88-.02.16-.05.32-.09.47-.12.52-.3,1.04-.57,1.56-.07.15-.15.3-.24.45-.11.19-.23.38-.36.56-.18.26-.38.53-.57.81-.11.16-.23.32-.34.49-.4.6-.79,1.24-1.11,1.93-.08.17-.16.34-.22.52-.23.57-.41,1.19-.49,1.83-.02.17-.04.34-.05.51-.09,1.47.32,3.1,1.57,4.91l-.65,1.52s-4.2-2.1-4.57-5.38c-.02-.16-.03-.32-.03-.49,0-.41.06-.82.2-1.26.12-.38.25-.75.4-1.1.07-.17.14-.34.22-.52.35-.79.75-1.55,1.14-2.3.08-.16.17-.32.25-.49.32-.64.62-1.29.87-1.96.06-.15.11-.31.17-.46.16-.51.3-1.04.38-1.59.03-.16.05-.31.06-.47.07-.62.08-1.28,0-1.98-.01-.16-.04-.32-.06-.49-.07-.45-.17-.92-.32-1.41-.09-.32-.16-.65-.2-.96-.02-.17-.04-.34-.05-.51-.03-.65.04-1.28.19-1.87.04-.16.08-.31.13-.46.29-.88.74-1.68,1.26-2.38.1-.13.19-.26.29-.38.5-.62,1.03-1.15,1.53-1.59.13-.11.26-.22.38-.32.41-.34.78-.61,1.06-.8.2-.13.34-.22.43-.28.06-.03.09-.05.09-.05l5.28-.74Z"/>
      <path class="cls-8" d="M34.07,38.43c-.14.07-.3.16-.47.25l-4.31-3.02c.2-.13.34-.22.43-.28l4.35,3.04Z"/>
      <path class="cls-8" d="M32.59,39.28c-.14.09-.29.19-.43.29l-4.3-2.79c.13-.11.26-.22.38-.32l4.35,2.82Z"/>
      <path class="cls-8" d="M30.57,40.84c-.12.11-.24.23-.35.35l-4.19-2.44c.1-.13.19-.26.29-.38l4.24,2.47Z"/>
      <path class="cls-8" d="M29.15,43.03c-.04.16-.06.32-.08.49l-4.43-1.91c.04-.16.08-.31.13-.46l4.37,1.89Z"/>
      <path class="cls-8" d="M29.1,45.32l-4.6-1.33c-.02-.17-.04-.34-.05-.51l4.61,1.33c0,.16.02.33.04.51Z"/>
      <path class="cls-8" d="M29.25,47.41l-4.17-.55c-.01-.16-.04-.32-.06-.49l4.21.56c0,.16.01.32.02.48Z"/>
      <path class="cls-8" d="M29.13,49.29c-.02.16-.05.32-.09.47l-4.01-.46c.03-.16.05-.31.06-.47l4.04.46Z"/>
      <path class="cls-8" d="M28.47,51.32c-.07.15-.15.3-.24.45l-3.75-.43c.06-.15.11-.31.17-.46l3.83.43Z"/>
      <path class="cls-8" d="M27.29,53.15c-.11.16-.23.32-.34.49l-3.6.16c.08-.16.17-.32.25-.49l3.69-.17Z"/>
      <path class="cls-8" d="M25.84,55.57c-.08.17-.16.34-.22.52l-3.62.54c.07-.17.14-.34.22-.52l3.63-.54Z"/>
      <path class="cls-8" d="M25.13,57.91c-.02.17-.04.34-.05.51l-3.65,1.05c-.02-.16-.03-.32-.03-.49l3.73-1.08Z"/>
    </g>
    <g>
      <path class="cls-6" d="M97.79,9.03c-1.46-1.18.62-3.89.62-3.89-1.79,0-2.87-.72-3.53-1.59.95-2.03,1.85-3.46,3.44-3.55,2.42-.13,1.79,4.44-.53,9.02Z"/>
      <path class="cls-6" d="M92.08,13.61c-1.19.38-2.35-.05-3.17-.53.25-.21.48-.44.71-.68,1-1.04,1.81-2.15,2.49-3.26.68,1.56,1.46,3.99-.02,4.46Z"/>
      <path class="cls-6" d="M87.56,19.5c-1.75,1.04-3.58,1.95-5.44,2.77.05-1.27.46-2.76,1.92-3.49,1.34-.67,2.58-.09,3.51.72Z"/>
      <path class="cls-6" d="M67.74,28.5c-1.21,1.3-2.65,1.68-3.76,1.75.42-2.3,1.44-5.05,3.75-7.23.74,1.54,1.47,3.91.01,5.48Z"/>
    </g>
    <path class="cls-2" d="M98.32.02c-1.6.09-2.49,1.52-3.44,3.55-.76,1.61-1.55,3.6-2.77,5.59-.68,1.11-1.48,2.22-2.49,3.26-.23.23-.46.46-.71.68-5.3,4.61-15.25,5.04-20.57,9.4-.21.17-.41.35-.6.53-2.31,2.18-3.32,4.93-3.75,7.23-.25,1.35-.3,2.54-.29,3.37-.4-.11-.81-.22-1.2-.32-1.64-.4-3.2-.66-4.67-.79-.43-.04-.86-.07-1.27-.08-.8-.03-1.58-.02-2.33.03h0c-2.15.14-4.1.6-5.88,1.32-.5.2-.98.42-1.45.66-1.04.53-2.01,1.15-2.93,1.85-.34.26-.68.53-1.01.82-.24.21-.48.43-.72.65-.66.62-1.28,1.28-1.88,1.98-.23.27-.46.56-.68.85-.15.2-.3.41-.44.62-.12.18-.24.36-.36.55-.15.23-.29.48-.43.72-.17.29-.34.6-.5.9-.18.35-.36.71-.53,1.07-.22.47-.44.95-.64,1.43-.13.32-.26.63-.38.95-.32.83-.61,1.65-.87,2.46,0,.02-.01.04-.02.06-.34,1.09-.64,2.15-.89,3.14,0,.02-.01.05-.02.07-.8,3.18-1.13,5.56-1.13,5.56l12.59,24.79s-1.34.32-3.24,1.09c-.09.03-.17.07-.26.11-.26.11-.54.23-.82.36-.48.22-.97.46-1.48.73-.05.03-.11.06-.16.08-.39.21-.8.44-1.2.68-.94.56-1.89,1.22-2.8,1.98-.05.04-.1.08-.14.12-3.13,2.65-4.84,5.52-4.2,7.58,0,.69.06,1,.33,1.41.6.93,1.57,1.12,3.3.94,1.19.62,2.66-.24,3.71-.87,1.78-1.08,3.83-2.76,7.19-4.77.05-.03.1-.06.15-.09.76-.45,1.57-.92,2.48-1.4.13-.07.26-.14.39-.21.07-.03.14-.07.2-.11.07-.03.14-.07.21-.11,1.67-.87,3.6-1.78,5.84-2.71.42-.18.84-.37,1.24-.58,1.41-.72,2.7-1.6,3.88-2.6,1.66-1.41,3.1-3.03,4.32-4.71h0c1.51-2.07,2.68-4.22,3.54-6.13,1.04-2.34,1.61-4.32,1.72-5.38,0,0,4.56-1.7,7.16-9.07,0,0,.76,8.2,4.05,8.27,3.29.07-.44-3.44.07-8.27.51-4.83.29-9.44-4.32-7.46,0,0-.02-.52-.13-1.38-.04-.32-.1-.68-.17-1.09h0c-.1-.58-.24-1.22-.42-1.93-.12-.46-.26-.95-.43-1.46h0c-.36-1.12-.84-2.31-1.47-3.5-.66-1.27-1.49-2.54-2.54-3.72-1.29-1.46-2.91-2.77-4.92-3.79.51-2.4,2.17-7.7,7.15-9.57,2.55-.95,5.21-1.94,7.82-3.1,1.85-.82,3.68-1.72,5.44-2.77,2.1-1.25,4.09-2.69,5.87-4.41,1.74-1.68,3.24-3.87,4.35-6.07,2.32-4.58,2.95-9.15.53-9.02Z"/>
    <path class="cls-3" d="M54.59,71.49c0,.34-.02.68-.06,1.03,0,.09-.02.17-.03.26-.01.09-.03.18-.04.28,0,.03,0,.07-.02.1-.02.14-.05.29-.08.43-.01.07-.03.14-.04.21-.03.15-.06.29-.1.44-.04.15-.08.3-.12.45-.19.69-.44,1.37-.74,2.04-.02.05-.05.11-.08.17,0,.01,0,.02-.02.03-.09.19-.18.38-.28.56-.02.04-.04.08-.06.11-.04.07-.07.14-.11.21-.07.13-.14.25-.21.38,0,0,0,.02-.02.02-.02.04-.05.08-.07.12-.23.39-.47.75-.72,1.08-.03.04-.06.09-.09.13-.04.06-.09.12-.13.17-.02.02-.03.03-.04.05-2.81,3.55-5.83,3.15-5.83,3.15,0,0-.06,0-.16.01-.44.03-1.76.11-3.55.02-3.5-.17-8.83-.98-13.12-3.99-.56-.39-1.11-.83-1.64-1.31-.35-.33-.68-.66-.98-1-1.31-1.49-2.08-3.14-2.44-4.82-.02-.09-.04-.18-.06-.28l-.04-.23h0c-.08-.51-.13-1.01-.13-1.52,0-.13,0-.26,0-.39,0-.16,0-.32.02-.48,0-.02,0-.04,0-.06,0-.16.02-.32.03-.47,0-.08.02-.15.02-.23,0-.02,0-.05,0-.08v-.06s0,0,0,0c.11-.86.31-1.71.59-2.53.02-.07.05-.14.07-.21.04-.12.08-.24.13-.36.04-.1.07-.19.11-.28.07-.17.14-.34.22-.52.01-.03.03-.06.04-.09,0-.02.02-.04.03-.06.03-.07.06-.13.1-.2.26-.53.55-1.05.87-1.54,0,0,0-.01.01-.02.08-.13.17-.25.25-.38.15-.22.3-.42.46-.62,1-1.28,2.17-2.33,3.41-3.03,1.57-.88,3.51-1.19,5.6-1.09.3.01.6.04.91.07.2.02.4.04.6.07.25.03.51.07.76.11.01,0,.02,0,.04,0,.29.05.57.1.86.17.16.03.32.07.48.1.34.08.69.17,1.03.27.03,0,.06.01.09.02.02,0,.05.01.07.02.23.06.46.14.69.21.1.03.2.06.3.1.94.3,1.88.66,2.78,1.06.09.04.17.08.26.12.19.08.38.17.56.25.05.02.09.04.14.06.21.1.41.19.6.29.06.03.13.06.19.1.21.11.43.22.64.33.09.05.18.1.27.15.13.07.25.14.38.21.19.1.37.21.55.32.17.1.33.19.49.29.42.26.82.53,1.2.8.1.07.19.13.29.2.06.05.13.1.19.14.14.1.27.2.39.3,2.53,1.97,3.85,4.52,4.15,7.22.02.14.03.29.04.43.02.2.02.4.03.6,0,.11,0,.23,0,.34Z"/>
    <g>
      <path class="cls-3" d="M28.18,62.34s-.06-.1-.09-.15c-2.11-3.6.57-8.25,1.62-8.14.02,0,.04,0,.06,0,1.04.16,1.96,1.73,2.57,3.75.62,2.05,2.51,3.24,2.51,3.24,0,0-4.4,4.92-6.67,1.3Z"/>
      <path class="cls-6" d="M28.1,62.19c-2.11-3.6.57-8.25,1.62-8.14.02,0,.04,0,.06,0-.15.3-.32.77-.37,1.45-.05.68.01,1.57.33,2.7.59,2.07-.2,3.25-.98,3.73-.23.15-.47.23-.66.25Z"/>
      <path class="cls-8" d="M28.75,61.94c-1.65-1.78-.12-3.51-.12-3.51,0,0-.49.08-.51-.28-.02-.35.48-.24.53-.23-.02-.02-.4-.42-.38-.65.01-.24.48.1.48.1-.08-.94.39-1.58.65-1.86-.05.68.01,1.57.33,2.7.59,2.07-.2,3.25-.98,3.73Z"/>
    </g>
    <path class="cls-6" d="M54.21,74.23c-.04.15-.08.3-.12.45-.19.69-.44,1.37-.74,2.04-.02.05-.05.11-.08.17,0,.01,0,.02-.02.03-.14-.06-.28-.12-.41-.18-.69-.31-1.45-.72-1.81-1.42-.12-.24-.19-.5-.16-.73.05-.49.49-.77.96-.8.47-.04.98.12,1.47.25.3.08.61.15.91.19Z"/>
    <path class="cls-6" d="M54.57,71.48c0,.34-.02.68-.06,1.03,0,.09-.02.17-.03.26-.01.09-.03.18-.04.28,0,.03,0,.07-.02.1-.62-.35-1.34-.84-1.29-1.43.01-.17.12-.31.27-.4.31-.19.72-.2,1.15-.17,0,.11,0,.23,0,.34Z"/>
    <path class="cls-6" d="M52.6,78.19s0,.02-.02.02c-.02.04-.05.08-.07.12-.23.39-.47.75-.72,1.08-.03.04-.06.09-.09.13-.14-.18-.27-.37-.39-.57-.16-.28-.29-.58-.28-.87.01-.29.23-.53.51-.47.14.03.27.13.4.21.21.14.43.26.65.35Z"/>
    <g>
      <g>
        <path class="cls-8" d="M44.53,81.3c-1.19.19-2.69-.28-3.53-1.16-.18-.19-.33-.4-.44-.64-.48-1.03-.39-2.4.08-3.41,0-.02.02-.05.03-.07.49-1.02,1.52-1.67,2.64-1.73,1.32-.08,2.98.47,3.57,1.75.23.51.33,1.1.29,1.71h0c-.08,1.61-1.06,3.3-2.65,3.55Z"/>
        <path class="cls-6" d="M44.53,81.3c-.67.1-1.36,0-2.01-.2-.32-.11-.63-.25-.93-.43-.29-.18-.56-.39-.79-.66-.23-.26-.39-.58-.49-.91-.11-.33-.16-.68-.18-1.02-.03-.69.09-1.4.36-2.05h0c.33-.76.96-1.36,1.73-1.68.38-.15.79-.24,1.2-.25.41,0,.81.03,1.2.12.78.19,1.55.58,2.05,1.24.25.32.41.71.5,1.1.09.39.11.79.08,1.19l-.05-.07h0s.05.02.05.02v.05c-.04.4-.12.8-.25,1.18-.13.38-.31.74-.54,1.07-.23.33-.51.62-.83.85-.33.23-.7.39-1.1.45ZM44.53,81.3c.39-.06.77-.22,1.09-.46.32-.23.59-.53.81-.86.22-.33.38-.7.49-1.07.11-.38.17-.77.19-1.16l.05.07h0s-.05-.02-.05-.02v-.06c.01-.38-.03-.77-.13-1.13-.1-.37-.26-.71-.5-.99-.48-.56-1.19-.9-1.92-1.06-.73-.16-1.51-.16-2.19.12-.34.14-.65.34-.93.58-.13.13-.26.26-.37.41-.06.07-.1.15-.15.23-.04.08-.1.17-.12.23h0c-.28.6-.44,1.26-.43,1.92,0,.33.04.66.12.98.08.32.22.63.42.89.41.53,1,.9,1.64,1.13.63.23,1.33.32,2,.23Z"/>
      </g>
      <path class="cls-6" d="M42.52,80.08c.8.44,1.85.48,2.62-.03,1.22-.81,1.52-2.69.6-3.83-.5-.62-1.33-1.03-2.13-1-2.11.06-3,2.9-1.68,4.4.16.19.36.34.58.46Z"/>
      <path class="cls-7" d="M47.18,77.75c-3.06-3.15-6.15-1.84-6.53-1.66,0-.02.02-.05.03-.07.49-1.02,1.52-1.67,2.64-1.73,1.32-.08,2.98.47,3.57,1.75.23.51.33,1.1.29,1.71Z"/>
    </g>
    <g>
      <g>
        <path class="cls-8" d="M30.43,76.64c-1.19.19-2.69-.28-3.53-1.16-.18-.19-.33-.4-.44-.64-.48-1.03-.39-2.4.08-3.41,0-.02.02-.05.03-.07.49-1.02,1.52-1.67,2.64-1.73,1.32-.08,2.98.47,3.57,1.75.23.51.33,1.1.29,1.71h0c-.08,1.61-1.06,3.3-2.65,3.55Z"/>
        <path class="cls-6" d="M30.43,76.64c-.67.1-1.36,0-2.01-.2-.32-.11-.63-.25-.93-.43-.29-.18-.56-.39-.79-.66-.23-.26-.39-.58-.49-.91-.11-.33-.16-.68-.18-1.02-.03-.69.09-1.4.36-2.05h0c.33-.76.96-1.36,1.73-1.68.38-.15.79-.24,1.2-.25.41,0,.81.03,1.2.12.78.19,1.55.58,2.05,1.24.25.32.41.71.5,1.1.09.39.11.79.08,1.19l-.05-.07h0s.05.02.05.02v.05c-.04.4-.12.8-.25,1.18-.13.38-.31.74-.54,1.07-.23.33-.51.62-.83.85-.33.23-.7.39-1.1.45ZM30.43,76.64c.39-.06.77-.22,1.09-.46.32-.23.59-.53.81-.86.22-.33.38-.7.49-1.07.11-.38.17-.77.19-1.16l.05.07h0s-.05-.02-.05-.02v-.06c.01-.38-.03-.77-.13-1.13-.1-.37-.26-.71-.5-.99-.48-.56-1.19-.9-1.92-1.06-.73-.16-1.51-.16-2.19.12-.34.14-.65.34-.93.58-.13.13-.26.26-.37.41-.06.07-.1.15-.15.23-.04.08-.1.17-.12.23h0c-.28.6-.44,1.26-.43,1.92,0,.33.04.66.12.98.08.32.22.63.42.89.41.53,1,.9,1.64,1.13.63.23,1.33.32,2,.23Z"/>
      </g>
      <path class="cls-6" d="M28.42,75.41c.8.44,1.85.48,2.62-.03,1.22-.81,1.52-2.69.6-3.83-.5-.62-1.33-1.03-2.13-1-2.11.06-3,2.9-1.68,4.4.16.19.36.34.58.46Z"/>
      <path class="cls-7" d="M33.08,73.09c-3.06-3.15-6.15-1.84-6.53-1.66,0-.02.02-.05.03-.07.49-1.02,1.52-1.67,2.64-1.73,1.32-.08,2.98.47,3.57,1.75.23.51.33,1.1.29,1.71Z"/>
    </g>
    <g>
      <path class="cls-6" d="M36.07,76.03s-.42-.98-.85-.95c-.43.03-.04,1.13.65,1.56,0,0,1.43-.25,1.3-.88-.13-.63-1.1.27-1.1.27Z"/>
      <path class="cls-6" d="M32.52,81.23c.27-.41.55-.82.82-1.23l.84-1.22.85-1.21c.29-.4.57-.81.86-1.21l.15-.2.02.24c.04.48.06.95.07,1.42.01.47.01.95,0,1.42-.02.47-.05.95-.1,1.42-.06.47-.13.94-.24,1.4.07-.47.13-.94.16-1.41.03-.47.05-.94.05-1.41,0-.94-.02-1.89-.11-2.83l.17.04c-.28.4-.58.8-.86,1.2l-.87,1.2-.88,1.19c-.3.39-.59.79-.9,1.17Z"/>
      <path class="cls-9" d="M34.43,76.3c-.51,0-1.06.21-1.48.66-.61.66-.97,1.59-.67,2.43.19.52.56.88.96,1.14.77.51,1.56.95,2.51.91.34-.01.7-.08,1.03-.28.51-.29.94-.88,1.12-1.53.18-.65.12-1.35-.16-1.84-.35-.6-1.04-.96-1.64-1.11-.53-.14-1.11-.38-1.67-.38Z"/>
    </g>
    <path class="cls-5" d="M45.57,82.93c-.44.03-1.76.11-3.55.02-.23-.44,0-.95.46-1.15.32-.14.69-.17.95-.19.55-.05,1.12.02,1.62.26.38.18.59.64.52,1.06Z"/>
    <path class="cls-5" d="M28.9,78.96c-.56-.39-1.11-.83-1.64-1.31-.35-.33-.68-.66-.98-1,.15-.14.34-.23.56-.25.35-.03.72.05.97.11.53.14,1.05.38,1.45.78.44.45.31,1.41-.37,1.66Z"/>
    <path class="cls-6" d="M26.84,67.68c.02.39-.32.72-.69.82-.37.1-.77.02-1.15-.08-.43-.11-.86-.25-1.27-.42h0c.11-.87.31-1.71.59-2.53.02-.07.05-.14.07-.21.57.59,1.27,1.05,1.89,1.57.27.22.54.5.56.84Z"/>
    <path class="cls-6" d="M24.79,70.85c-.28.23-.64.37-1.02.44h0c-.08-.51-.13-1.01-.13-1.52,0-.13,0-.26,0-.39.12.04.24.07.36.1.23.05.46.08.67.17.21.09.41.25.46.46.07.28-.11.56-.35.75Z"/>
    <path class="cls-6" d="M26.12,64.29c-.11.16-.34.21-.53.16-.19-.05-.35-.17-.49-.31-.06-.06-.12-.13-.17-.19.03-.07.06-.13.1-.2.26-.53.55-1.05.87-1.54,0,0,0-.01.01-.02.03.49.11.97.23,1.44.06.22.11.47-.01.66Z"/>
    <path class="cls-9" d="M24.72,73.77c-.09.18-.18.36-.25.55-.07.19-.12.38-.12.57,0,.09.03.18.09.23.07.05.15.08.24.07.17-.02.33-.16.44-.3l.47-.59-.34.67c-.07.13-.12.28-.15.43-.03.14-.03.3.02.4.06.1.18.15.32.13.14-.02.28-.07.41-.14l.1-.06.03.11c.09.3.23.59.39.86.16.27.35.54.57.78.22.24.45.47.7.66.12.11.26.19.39.29.14.09.28.17.42.26-.3-.13-.59-.29-.86-.47-.28-.18-.52-.41-.75-.64-.23-.23-.43-.5-.61-.78-.18-.28-.32-.58-.43-.91l.14.06c-.15.08-.31.14-.49.16-.09,0-.18,0-.28-.03-.09-.04-.17-.1-.22-.19-.1-.18-.07-.37-.03-.53.04-.16.1-.31.18-.46l.13.09c-.07.09-.15.16-.24.22-.09.06-.2.11-.31.12-.12,0-.24-.04-.32-.11-.1-.08-.12-.21-.12-.32,0-.22.09-.41.17-.6.09-.19.19-.36.3-.53Z"/>
    <g>
      <path class="cls-6" d="M22.75,77.09c.65-.02,1.3.01,1.95.06.65.05,1.29.12,1.93.25-.65.02-1.3-.01-1.95-.06-.65-.05-1.29-.12-1.93-.25Z"/>
      <path class="cls-6" d="M22.92,75.49c.62.13,1.22.31,1.81.51.59.2,1.18.41,1.75.68-.62-.13-1.22-.31-1.81-.51-.59-.2-1.18-.42-1.75-.68Z"/>
      <path class="cls-6" d="M23.97,73.77c.5.39.96.81,1.4,1.25.44.44.88.89,1.27,1.38-.5-.39-.96-.81-1.4-1.25-.44-.44-.88-.89-1.27-1.38Z"/>
    </g>
    <g>
      <path class="cls-6" d="M44.94,83.03c.65-.02,1.3,0,1.95.05.65.05,1.29.12,1.93.24-.65.02-1.3,0-1.95-.05-.65-.05-1.29-.12-1.93-.24Z"/>
      <path class="cls-6" d="M49.08,81.91c-.6.18-1.22.3-1.84.4-.62.1-1.24.19-1.87.22.6-.18,1.22-.3,1.84-.4.62-.1,1.24-.19,1.87-.22Z"/>
      <path class="cls-6" d="M48.18,79.85c-.47.42-.96.8-1.47,1.17-.51.36-1.03.71-1.58,1.02.47-.42.96-.8,1.47-1.17.51-.36,1.03-.71,1.58-1.02Z"/>
    </g>
    <path class="cls-11" d="M38.93,75.19c-.06.03,0,0,0,0h0Z"/>
    <path class="cls-6" d="M45.38,59.6c-.51,1.53-1.3,2.97-2.04,4.39-.36.69-.77,1.34-1.23,1.96-.14.19-.3.39-.5.51-.37.21-.82.1-1.14-.14-.59-.43-.9-1.23-.93-2.02-.04-.8.17-1.59.41-2.36.35-1.12.83-2.62,1.53-3.82.1.03.2.06.3.09.94.29,1.88.64,2.78,1.02.09.04.17.08.26.11.19.08.38.16.56.25Z"/>
    <path class="cls-6" d="M50.31,62.41c-.14.16-.29.33-.42.49-.43.51-.82,1.07-1.29,1.52-.48.45-1.07.78-1.65.74-.35-.03-.71-.22-.83-.6-.09-.28-.05-.59.03-.89.27-1.05.84-2.01,1.45-2.96.19.1.37.21.55.31.17.09.33.19.49.29.42.25.82.51,1.2.77.1.06.19.13.29.19.06.05.13.09.19.14Z"/>
    <path class="cls-6" d="M39.1,57.53c-.44,1.12-1.02,2.17-1.6,3.21-.17.32-.45.69-.76.61-.26-.06-.38-.41-.42-.72-.15-1.16.14-2.34.52-3.45.2.02.4.04.6.07.25.03.51.07.76.11.01,0,.02,0,.04,0,.29.05.57.1.86.16Z"/>
    <g>
      <path class="cls-3" d="M51.74,70.06s-1.7-.65-2.76-1.93c-.58-.7-.97-1.58-.79-2.65,0,0,4.55-5.2,6.19-5.06.2.02.37.19.5.47.99,2.05.25,10.11-3.14,9.17Z"/>
      <path class="cls-6" d="M51.82,70.08s-.05-.01-.08-.02c0,0-1.7-.65-2.76-1.93.18-.02.39-.03.62-.03,2.09,0,3.16-1.89,3.79-3.76.61-1.81.81-3.6,1.15-3.63.12-.01.23.06.33.18.98,2.04.27,9.98-3.06,9.19Z"/>
      <path class="cls-8" d="M53.01,67.69s.4.64.28.76c-.12.11-.52-.4-.52-.4,0,0-.07,1.44-.95,2.03-.03,0-.05-.01-.08-.02,0,0-1.7-.65-2.76-1.93.18-.02.39-.03.62-.03,2.09,0,3.16-1.89,3.79-3.76.18.54.62,2.14-.31,2.95,0,0,.81.08.86.25.05.17-.93.15-.93.15Z"/>
    </g>
    <path class="cls-9" d="M39.59,79.69s.74,1.41,2.59,2"/>
    <path class="cls-9" d="M30.14,77.66s1.15-.04,2.31-1.42"/>
    <g class="cls-13">
      <path class="cls-6" d="M62.96,61.36c1.05,2.93,2.99,6.35,6.36,6.49,3.22-.59,5.05-4.01,6.81-6.5.51-.8,1.05-1.65,1.41-2.49-.45,1.85-1.37,3.65-2.39,5.31-1.3,1.96-3.11,4.45-5.79,4.66-3.81-.08-6.01-4.14-6.4-7.46h0Z"/>
    </g>
    <path class="cls-6" d="M81.97,67.52c-1.02.3-1.91-.88-1.3-1.76.86.6,1,.76,1.3,1.76h0Z"/>
    <path class="cls-6" d="M43.59,71.83c-.17.08-.34.23-.29.41.02.08.08.14.15.19.47.4,1.08.62,1.69.63.81,0,.98-.81.33-1.24-.47-.31-1.41-.21-1.87.01Z"/>
    <path class="cls-6" d="M31.49,68.53c.18-.02.4-.11.41-.29,0-.08-.03-.16-.07-.23-.31-.53-.81-.94-1.39-1.15-.77-.27-1.19.44-.72,1.06.34.45,1.26.66,1.77.6Z"/>
    <path class="cls-6" d="M35.35,98.15c-.07-2.06,1.21-4.44,3.31-4.97-1.18,1.6-2.05,3.37-3.31,4.97h0Z"/>
    <path class="cls-6" d="M31.77,95.66c.16-1.79,1.72-3.52,3.58-3.54-1.21,1.3-2.16,2.41-3.58,3.54h0Z"/>
    <path class="cls-6" d="M40.9,90.6c-.28.05-.56-.03-.83-.14-1.3-.51-2.34-1.47-3.53-2.15-.13-.07-.33-.14-.57-.23.05-.04.1-.08.14-.12.91-.76,1.86-1.42,2.8-1.98.8.43,1.51,1.05,2.1,1.75.38.45.73.96.78,1.54.05.58-.3,1.24-.88,1.34Z"/>
    <path class="cls-6" d="M60.69,84.56c-1.18,1-2.47,1.89-3.88,2.6-.2-1.04-.5-2.06-.89-3.04-.15-.37-.32-.74-.5-1.1-.45-.94-.91-1.86-1-2.93-.11-1.34,1.3-1.48,2.25-1.04.54.25.99.65,1.4,1.08,1.15,1.21,2.11,2.77,2.61,4.43Z"/>
    <path class="cls-6" d="M50.76,55.36c-1.18-.17-2.26-.65-3.35-1.07-2.73-1.02-5.66-1.64-8.63-1.84-1.39-.09-2.78-.02-4.16.04.25-.99.55-2.05.89-3.14,1.08.05,2.16.13,3.24.25,3.43.37,6.79,1.13,9.87,2.47,1.35.59,2.79,1.32,3.28,2.56.27.68-.52.81-1.14.72Z"/>
    <path class="cls-6" d="M59.33,45.42c-.49.22-1.11.1-1.65-.09-2.43-.82-4.28-2.6-6.38-3.97-2.72-1.77-5.83-2.84-9.06-3.68.23-.22.47-.44.72-.65.33-.29.66-.56,1.01-.82.92-.7,1.89-1.32,2.93-1.85.26.1.52.21.79.33,4.33,1.85,8.36,4.41,11.36,7.73.41.46.82.96.96,1.53.14.57-.08,1.22-.65,1.48Z"/>
    <path class="cls-6" d="M50.83,47.83c-.15.11-.36.13-.54.13-1.3,0-2.53-.57-3.74-1.07-2.93-1.21-6-2.05-9.13-2.52.17-.36.35-.72.53-1.07.16-.31.33-.61.5-.9.14-.25.29-.49.43-.72.12-.18.24-.37.36-.55,1.9.44,3.76.98,5.53,1.56,2.32.76,4.71,1.83,6.02,3.89.25.39.42.98.05,1.26Z"/>
    <path class="cls-6" d="M64.39,38.77c-.11.43-.29.88-.6,1.1-.36.25-.79.16-1.15-.03-1.55-.8-2.31-2.94-3.2-4.75-.47-.95-1.01-1.85-1.62-2.66,1.47.12,3.02.38,4.67.79.54.13,1.09.28,1.65.45,0,0,.01,0,.02,0,.08.43.15.86.21,1.29.19,1.25.34,2.57.03,3.81Z"/>
    <path class="cls-6" d="M74.61,42.38c-1.19,1.55-2.82,2.75-4.66,3.41-.57.21-1.18.36-1.79.3-.21-.02-.42-.07-.59-.21-.43-.36-.28-1.05-.02-1.54.77-1.49,2.12-2.59,3.24-3.84.49-.56.95-1.17,1.28-1.84,1.05,1.18,1.88,2.45,2.54,3.72Z"/>
    <path class="cls-6" d="M77.1,50.35c-.4.16-.8.3-1.21.42-.96.29-1.96.52-2.97.52-.38,0-.84-.1-.94-.47-.09-.35.24-.66.54-.87,1.07-.76,2.16-1.48,3.27-2.17.24-.15.48-.3.72-.45.18.7.32,1.35.42,1.92h0c.07.41.13.77.17,1.09Z"/>
    <path class="cls-6" d="M68.55,73.64c-.85,1.91-2.03,4.06-3.54,6.13-.6-.76-.97-1.86-1.11-2.61-.21-1.07-.06-2.32.77-3.04.67-.58,1.63-.68,2.51-.65.46.02.92.06,1.36.17Z"/>
    <g>
      <path class="cls-8" d="M5.24,49.94s1.14,9.08,5.63,14.53l9.39-3.35s-3.4-7.07-3.21-15.58c0,0-7.64,1.79-11.82,4.4Z"/>
      <path class="cls-14" d="M7.5,51.74c.84-.04,1.56-.87,1.49-1.7-.39-.09-.73.35-.7.75.03.4.37.77.77.76.4,0,.74-.48.56-.83.18.43.86.52,1.14.16.07-.09.12-.2.22-.27.22-.15.51.04.78.05.42,0,.7-.59.43-.9.19.16.49.17.7.04.21-.13.32-.41.26-.65-.16-.01-.2.24-.13.39.21.45.78.7,1.25.55.17-.05.32-.15.5-.19.17-.04.38,0,.47.15"/>
      <path class="cls-14" d="M8.77,54.68c.34-.01.66-.24.79-.55.13-.31.07-.7-.16-.95-.09-.1-.25-.19-.36-.11-.14.09-.07.3.01.45.16.28.32.57.55.8.24.22.56.37.88.32s.6-.36.55-.68c-.18.16.03.48.27.47.24-.01.41-.23.51-.45.13.09.3.14.46.11.16-.04.29-.18.28-.34,0-.16-.2-.29-.34-.22.18.15.47.17.67.05.21-.12.32-.38.27-.62-.08,0-.13.08-.12.16s.08.13.14.18c.41.31.93.47,1.45.44.19-.01.39-.06.51-.2.13-.14.13-.4-.03-.49.1.43.54.74.97.71"/>
      <path class="cls-14" d="M9.82,57.28c-.15-.12-.17-.36-.07-.53.1-.17.28-.27.47-.32.56-.15,1.2.13,1.46.64-.29.21-.72.19-.99-.04.2-.1.4-.19.6-.27.58-.24,1.19-.48,1.81-.44.3.02.6.11.9.15.06,0,.12.01.17-.02.08-.05.09-.16.07-.25-.06-.36-.36-.66-.72-.71-.09-.01-.21,0-.24.09-.03.08.04.17.11.23.44.37,1.06.45,1.64.47.22,0,.46,0,.65-.11.19-.11.31-.38.18-.57"/>
      <path class="cls-14" d="M10.7,59.74c.26.35.87.36,1.14.02.28-.34.14-.93-.25-1.11-.2.17.02.49.24.63.37.23.82.4,1.23.28.42-.12.72-.65.49-1.01.45.24.99.31,1.48.2.32-.07.69-.36.57-.67.37.03.75,0,1.11-.08.19-.04.4-.12.47-.3.07-.18-.14-.43-.3-.31-.02.08.06.16.12.21.36.28.72.57,1.07.85"/>
    </g>
    <g>
      <path class="cls-8" d="M33.16,27.27s6.07,3.91,9.29,12.67l8.67-5.35s-3.47-9.9-7.83-13.38l-10.13,6.06Z"/>
      <path class="cls-14" d="M36.64,27.93c.37.03.73-.29.75-.66.02-.37-.31-.72-.69-.73,0,.3.21.56.44.75.35.27.85.38,1.24.17.38-.22.52-.83.18-1.11.2.2.51.27.77.18.26-.09.47-.34.5-.61.36.13.77-.03,1.06-.27.09-.07.17-.16.27-.2.13-.05.28-.04.43-.05.37-.03.73-.26.89-.6-.18.01-.36.09-.49.22"/>
      <path class="cls-14" d="M39.97,30.37c-.27-.52-.54-1.05-.81-1.57-.13-.26-.3-.54-.59-.58-.04,0-.09,0-.12.02-.05.04-.04.12-.01.18.26.76,1.17,1.12,1.98,1.05.27-.02.59-.13.65-.4.05-.25-.17-.49-.15-.74.17.03.36.06.52-.01.16-.07.28-.28.19-.43-.12-.2-.43-.11-.63,0,.6.33,1.39.27,1.93-.15.1.28.27.54.52.7.25.15.59.18.84.01.24-.17.34-.54.17-.78"/>
      <path class="cls-14" d="M40.38,32.59c.29.16.63.25.95.17.32-.09.58-.41.52-.73-.03-.15-.12-.29-.24-.39-.18-.17-.42-.27-.67-.29.31.37.96.39,1.3.04.09-.09.16-.2.25-.29.11-.1.25-.15.39-.2.14-.05.28-.11.43-.16.11-.04.25-.08.34,0,.15.12,0,.36-.01.56-.01.25.23.44.46.52.48.14,1.12-.16,1.12-.66,0-.11-.03-.23,0-.34.07-.23.37-.3.6-.25.23.05.45.17.69.18.31,0,.62-.23.66-.54.03-.31-.26-.62-.57-.57"/>
      <path class="cls-14" d="M42.77,34.33c.4.73.92,1.53,1.74,1.65.15.02.31.02.45-.05.25-.11.38-.39.41-.65.02-.27-.05-.53-.12-.79-.09.29.15.6.45.65s.59-.13.76-.38c.17-.25.22-.56.23-.86.29.23.7.3,1.05.17.35-.13.62-.45.69-.81.02-.08.02-.17.08-.23"/>
    </g>
    <g>
      <path class="cls-8" d="M29.49,74.76s-9.31-3.54-20.02-4.56c0,0-3.29,10.18-3.22,16.05,0,0,12.3,3.01,20.76,3.25,0,0,2.74-8.15,2.47-14.75Z"/>
      <path class="cls-14" d="M8.88,85.41c.34-.15.69-.3,1.03-.46.31-.14.65-.31.74-.64.09-.35-.16-.71-.47-.9-.21-.13-.51-.2-.68-.03.24.01.5.01.7-.13.19-.14.24-.49.02-.6.24-.01.5-.05.69-.19.19-.15.29-.45.14-.64-.16-.22-.52-.2-.68-.41-.06-.08-.08-.17-.1-.26-.14-.87.4-1.69.72-2.52.1-.26.16-.61-.05-.8-.06-.06-.15-.1-.21-.16-.19-.17-.16-.49-.02-.71.13-.22.35-.38.51-.58.44-.53.48-1.35.11-1.93"/>
      <path class="cls-14" d="M12.92,85.2c.44.09.93-.22,1.04-.66.11-.44-.16-.94-.59-1.08.25.07.53.06.77-.04.3-.12.56-.4.53-.72-.03-.32-.49-.54-.7-.3.17-.04.34-.09.48-.19.14-.11.22-.3.16-.46s-.32-.22-.42-.08c.18.12.44.07.59-.08.15-.15.21-.38.2-.6-.04-.74-.73-1.24-1.27-1.76-.19-.18-.36-.38-.45-.62-.09-.24-.06-.54.12-.72.51-.53,1.56.29,2.1-.22.24-.23.19-.69-.09-.87.31-.05.63-.09.91-.23.28-.13.54-.37.62-.67.12-.49-.2-1.09.14-1.46-.13-.21-.44-.26-.63-.11"/>
      <path class="cls-14" d="M18.11,85.06c.34-.26.68-.58.75-1.01.07-.42-.27-.92-.69-.87.39.12.84.05,1.17-.19.15-.11.28-.25.31-.43.04-.24-.11-.48-.32-.6-.21-.12-.47-.13-.71-.09.39,0,.76-.22.97-.55.12-.19.18-.43.09-.64s-.35-.34-.54-.24c.37-.08.74-.32.83-.69.09-.37-.24-.82-.61-.72.3.09.63.12.92,0,.29-.11.53-.39.54-.7.01-.31-.24-.63-.55-.63.27,0,.56,0,.81-.11.25-.1.48-.33.5-.6.02-.3-.22-.57-.5-.68-.28-.12-.59-.11-.89-.11"/>
      <path class="cls-4" d="M23.31,85.7c.19.31.58.57.96.48.23-.06.4-.25.5-.47.16-.35-.02-.6.51-.45.44.12,1.32.03,1.45-.53.03-.12,0-.24-.07-.34-.27-.46-.83-.69-1.3-.88-.52-.21-1.21-.43-1.73-.08-.4.27-.53.79-.54,1.27,0,.33.04.67.2.96,0,.01.01.03.02.04Z"/>
      <path class="cls-4" d="M22.88,82.94c.17.11.34.23.54.28.1.03.23.03.3-.05.28-.34.02-1.02-.41-1.08-.47-.06-.88.56-.43.86Z"/>
      <path class="cls-4" d="M24.73,82.26c-.22,0-.53.11-.45.38.02.07.07.14.12.19.1.12.27.26.44.2.09-.03.15-.12.21-.2.04-.06.08-.12.1-.2.02-.07.02-.15-.02-.21-.07-.11-.23-.16-.39-.17Z"/>
      <path class="cls-4" d="M22.17,83.76c-.08.2-.08.54.2.55.08,0,.15-.02.22-.05.15-.06.33-.16.34-.34,0-.1-.06-.18-.11-.26-.04-.06-.09-.12-.15-.16-.06-.04-.14-.07-.21-.05-.12.03-.23.16-.3.31Z"/>
    </g>
    <path class="cls-6" d="M49.32,90.66c-.13.07-.26.14-.39.21-.9.48-2.05,1.14-2.8,1.59-2.56-5.3-5.78-6.84-6.38-6.98.05-.03.47-.26.52-.28.51-.27,1.01-.51,1.48-.73.28-.13.56-.25.82-.36,4.19.8,5.87,4.78,6.75,6.54Z"/>
    <path class="cls-12" d="M49.52,90.55c-.07.04-.14.07-.2.11-1,.53-1.91,1.04-2.74,1.53-2.66-5.54-5.45-6.74-6.31-6.99.51-.27,1.01-.51,1.48-.73.37-.17.73-.32,1.08-.46,4.1.88,5.8,4.74,6.69,6.54Z"/>
    <path class="cls-6" d="M48.21,87.99c-.29.54-.91.89-1.5.98-.82.13-1.82-.1-2.52-.54-.97-.61-1.42-1.17-1.56-1.88-.09-.48.14-.76.2-1.08.64-1.59,2.17-1.68,3.69-.92,1.52.75,2.58,1.79,1.69,3.45Z"/>
    <path class="cls-6" d="M48.43,87.15s-.05.1-.08.14c-.47.7-1.84.79-3.17.19-1.33-.6-2.16-1.69-1.94-2.51.01-.06.03-.11.06-.16.38-.83,1.83-.98,3.25-.33,1.42.64,2.27,1.84,1.89,2.67Z"/>
    <path class="cls-8" d="M48.35,87.29c-.47.7-1.84.79-3.17.19-1.33-.6-2.16-1.69-1.94-2.51.47-.7,1.84-.79,3.17-.19,1.34.6,2.16,1.69,1.95,2.51Z"/>
    <path class="cls-6" d="M44.1,84.87c.82.09,1.49.5,2.08,1.02,0,0-.77.56-.77.56-.19-.52-.32-1.07-.23-1.72.96.62,1.42,2.01,1.96,2.93-1.07-.72-2.62-1.46-3.05-2.78h0Z"/>
    <g>
      <path class="cls-3" d="M12.67,87.91c-.16.92-.09,1.95.22,2.83.73,2.08,3.16,3.07,5.21,3.1,1.39.02,2.76-.56,3.73-1.56.67-.69,1.29-1.63,1.34-2.63.05-1.07-.71-1.8-1.57-2.33-2.07-1.27-4.66-1.46-6.91-.6-.38.14-1.94.72-2.02,1.19Z"/>
      <path class="cls-6" d="M15.57,89.99c1.34-1.28,2.61-2,3.41-3.66.71,1.97-1.55,3.82-3.41,3.66h0Z"/>
      <path class="cls-6" d="M18.44,91.48c1.39-1.37,2.75-2.01,3.94-3.57.24,2.05-2.06,3.61-3.94,3.57h0Z"/>
    </g>
  </g>
</svg>